<svg xmlns="http://www.w3.org/2000/svg" viewBox="0 0 930.76 705.42"><defs><style>.a{fill:#9ca44f;}.b{fill:#ad3657;}.c{fill:#6e3242;}.d{fill:#f48e34;}.e{fill:#eb375a;}.f{fill:#fdfdfd;}.g{fill:#6d2f3f;}</style></defs><path class="a" d="M1005.73,477.06c-1.72-2.49-4.19-2.87-7-2.81-30.64.7-61.28,1.42-91.92,1.93q-21.1.35-42.22-.08c-13.68-.27-26.9-3.91-40.24-6.51-11.17-2.19-22.27-4.76-33.38-7.27-6.49-1.46-13.2-1.46-19.63-3.52-15.42-4.95-27.08-14.34-34.78-28.54-3.87-7.15-7-14.71-12.61-20.83-2.45-2.68-.61-4.14,1.92-5.23,7.28-3.11,15.07-4.32,22.71-6,5.58-1.26,10.82-4.2,16.8-3.62.08,2.29-1.66,3.71-2.71,5.41a5.79,5.79,0,0,0-.51,5.86c1,2,3,2.21,5,1.93,3.47-.51,6.92-1.17,10.37-1.77,11.17,3.51,22.75,5.65,33.62,10.23-5.09-3.61-10.86-5.61-16.64-7.65-3.86-1.37-8.15-1.17-11.72-3.45,5.33-4.13,12.14-4.49,18.06-7.09,6.35,2.4,11.92,6.2,17.65,9.72,3.84,5.55,8.59,10.49,11,17.06.62,1.73,1.66,3.64,4.54,3.28,10.65-1.35,21.34-2.44,32-3.62,6.21.16,12.14,2,18.22,3a2.35,2.35,0,0,0,2,.8c.57.89,1.48.85,2.38.87l1,.26c1.11,1.5,2.71,1.63,4.37,1.59l.14.1c.67,1.43,2,1.66,3.34,1.78l1.21.86c.58.91,1.51.85,2.41.87l.12.09a4.8,4.8,0,0,0,4.32,2.54l.16.09.75.71.21.16,1.58.78.15.1.74.66a2.41,2.41,0,0,0,2,1.11l1.55.82.17.12c.72,1.41,2.14,1.8,3.43,2.38a2.32,2.32,0,0,0,2.05,1.12l.27.05.27,0,.13,0,.78.85,1.07,1a3,3,0,0,0,2.54,1.55l.21.16a2.51,2.51,0,0,0,2.47,1.54l.29.21a1.39,1.39,0,0,0,1.49.74l.91.24c5.53,4.49,11.87,5.68,16.56,2.88a35.59,35.59,0,0,0-11.91-5.75c-7.82-4.58-15.54-9.29-22.4-15.28a1.53,1.53,0,0,0-1.56-.82l-.07-.07a1.42,1.42,0,0,0-.86-1.5l-.24-.24a2.85,2.85,0,0,0-2.35-1.72l-1.2-1a2.64,2.64,0,0,0-2.4-1.63l-.2-.13a1.57,1.57,0,0,0-1.58-.82l-.13-.09-.77-.72-.16-.15-.72-.68a2.28,2.28,0,0,0-1.87-1.15l-.81-.66-.19-.17-.73-.66-1.26-1.1c-.21-.66-.75-.74-1.33-.76l-.27-.2-.64-.56a2.41,2.41,0,0,0-2-1.18c-1.9-2.83-5-3.42-8-4.41-4.47-5.88-10.33-10-16.86-13.22a38.55,38.55,0,0,0-11.44-8c-.87-1.72-3.14-2.66-3-5.33,6.18,1.42,11.22,4.9,16.74,7.2,3,1.23,3.37,1.15,3.65-1.63a6.58,6.58,0,0,0-.08-3.88c-1.89-8.15-.7-15.63,4.78-22.19l-.06.07.77-.66A191.74,191.74,0,0,1,895,357c.66.26,1.39.86,2,.74,8-1.69,15.67-.28,23.28,2,1.24.37,2.43,1.11,3.7.14,3.93,3.75,9.13,5.76,12.81,10,6.24,7.14,6.17,15.21-.42,21.93-2.41,2.45-5.56,3.16-8.4,4.62l-2.68-.13q-1.53-1.94-3.27-.18H914.4l-.19-.31-.19.31a51.6,51.6,0,0,0-21.55,5.76c-4,2.06-4.1,2.77-.34,5,6,3.5,12,6.86,18.11,10.17,2.81,1.53,5.23,3.92,8.68,4.12l.19.13a20.81,20.81,0,0,0,8.71,5.08l1,.29a6.89,6.89,0,0,0,5.2,2.54l.13.08.77.68,1,.27a6.32,6.32,0,0,0,4.37,2.41l.85.27c1.35,2.49,4,2.45,6.24,3.3l1,.26.8.57,1,.28a7,7,0,0,0,5.39,2.49c8.85,5.25,18.67,8.15,28.3,11.49,5.87,1.92,11.68,4,17.62,5.71,12.44,3.51,24.87,7.14,37.48,9.95,4,.89,8.11,2.81,12.46,1.49,2.59,2.76,6,1.45,9,1.73,1.18,1.27,2.77,1.53,4.37,1.86,8.32,1.71,16.63,3.49,24.94,5.24l3.12,2.78c.68.72.08,3.09,2.32,1.79l2.55,0c3.3,2.76,4.31,7,6.58,10.39l-1.16.31c-2-.11-4.94-1.45-3.58,2.82.27.85.07,2-1,2.11-3.81.38-1.63,2.74-1.2,4.68-2.3,0-4.54-.53-5.26,2.35-.32,1.28-1.91,1.15-3.06,1.35l-.2-.27-.64-.73-.14-.15c-.09-1.2-.38-2-1.63-.78-2,1.22-3.83.79-5.83-.23-8.68-4.43-16.79-9.8-25-15-3.19-2-6-4.76-10-5.51-.23-1.74-1.68-2.29-3-3a32.45,32.45,0,0,0-14.85-3.88A127.34,127.34,0,0,0,1005.73,477.06ZM812.34,435.31l.07.12-.09-.09-.9-.88a15.46,15.46,0,0,0-7.61-5.13c-6.72-2.43-13.74-3.51-20.78-4.54-5.7-.83-11.83-.94-16.44-4.73s-9.88-3.89-15.34-3.86c10.33,5.11,20.94,9.46,32.29,11.68,9.4,1.83,19,2.54,27.94,6.53Zm47.3,2.89c-6.06-1.83-12.22-3.21-18.43-4.46-7.36-1.49-7.32-1.71-8.82,5.24-.12.56-.14,1.15-.21,1.72-1.92,7-9.63,8.68-13.63,14.46,14.56,2.08,28.71,1.74,42.86,1.53,2.42,1.45,5.21.87,7.8,1.24,15,2.17,30,4.87,45.32,4,4.51-.25,9-.9,13.49-1.37-6.16-2.61-12.14-5-18.59-5.7l-.09-.1a17.82,17.82,0,0,0-2.7-1.41c-10.23-3.34-20.49-6.58-30.71-10C870.52,441.61,865.57,438.39,859.64,438.2Zm196.13,43.69c0,3.85.06,4.15,3.43,5.87a101.23,101.23,0,0,1,11.88,7.74c2.55,1.78,5,3.7,8,4.65,2,.63,5,1,5.21-1.51.46-4.86,2.8-9,4-13.53,1-3.72-.35-5.78-4.19-6.67a186.68,186.68,0,0,0-21.35-3.89c-6.64-.74-6.66-.6-7,6C1055.75,481,1055.77,481.44,1055.77,481.89Zm-302.9-46c11.58,16.22,29.78,20.93,58.14,11.46-2.6-.77-5-.31-7.52,0-5.18.7-10.08,2.52-15.59,2.12-11.55-.84-21.36-5.35-30.44-12.11C756.19,436.43,755,434.67,752.87,435.89Zm135.65-62.58c10.05-3.59,19.66-2.48,29,2.16C906.73,364.75,896,363.85,888.52,373.31ZM812.69,418c.11-.1.29-.22.27-.29a4.88,4.88,0,0,0-.28-.68c-.1.09-.3.2-.28.26A5.3,5.3,0,0,0,812.69,418Z" transform="translate(-494.62 -187.29)"/><path class="a" d="M775,286.77c9.61-12.76,21.34-23.4,33.86-33.15,36.39-28.37,77.79-45.12,123.34-51.05,56.29-7.32,110.31.82,160.79,27.51,48.92,25.86,85.67,63.26,104.85,115.95,16.32,44.8,14.77,89.51-3.38,133.59a194.21,194.21,0,0,1-28.65,47.91c-.74.92-1.51,1.83-2.33,2.68-.26.28-.73.35-2,.93,3.44-5.88,6.55-11,9.45-16.2,18.14-32.64,25.93-67.66,22.91-104.82-3.37-41.37-19.35-77.75-46.46-108.93-41.89-48.19-95.7-74.08-158.45-82.11a265.58,265.58,0,0,0-146.16,22,236.15,236.15,0,0,0-63.65,42.57c-1.25,1.17-2.16,2.9-4.16,3.09Z" transform="translate(-494.62 -187.29)"/><path class="b" d="M1089.77,477.27c-8.31-1.75-16.62-3.53-24.94-5.24-1.6-.33-3.19-.59-4.37-1.86,21.27-4.11,42.23-9.24,62.19-17.9,7.34-3.18,12.88.43,13.5,8.51.67,8.71-1.37,17.08-3.13,25.49-.27,1.3-.58,2.59-1,4.24,8.68-.22,17.32-2.47,25.58,1.24a9.3,9.3,0,0,1-4.18,9.43c-2.76,1.91-5.45,3.95-8.85,4.66-4.24-2.44-8.86-3-13.66-2.9-1.7,0-2.74.45-3.2,2.22-.94,3.7-2,7.37-3,11.05a5.11,5.11,0,0,0-1.8,2.92c-2,5.63-3.29,11.46-5.84,16.92-2.32,5-2,5.33,3,6.71-4.13.12-5.81,2.51-7.08,6.29-4.65,13.88-9.86,27.54-18.36,39.67a61.29,61.29,0,0,1-26.37,21.65c-1.15.5-2.69.46-3.24,2-7.48,1.49-14.91,3.79-22.45,4.3-20,1.36-40.06,2.21-60.11,2.73-11.2.29-22.44-.15-33.66-.46-17-.47-34-1.1-51-1.17-21.81-.1-43.71.93-65-5.35a47.48,47.48,0,0,1-21.15-24.06A202.91,202.91,0,0,1,802,555.12c-.76-3.57-2.15-5.2-5.64-5.2.85-1.59,4.52.45,3.85-2.25-1.76-7.22-1.92-14.8-5-21.7.17-4.63-1.51-9-2.23-13.42a2.49,2.49,0,0,0-2.75-2.27c-7.18-.27-14.46-1.31-21.1,2.67-6.26-2.11-11.63-5.24-14.12-11.88-.17-.46-1.21-.58-1.85-.86,7.34-4.35,15.38-3.56,23.32-3,4.39.3,8.75,1.1,13.64,1.75-1-5.22-2-10.37-2.89-15.56a43.31,43.31,0,0,1-.69-7.94c.13-5.72,3.15-8.4,8.77-7.64,9.55,1.29,18.73,4.32,28.25,5.85a598.37,598.37,0,0,0,82.27,7.26,806.38,806.38,0,0,0,99.87-3.86,127.34,127.34,0,0,1,22.08-.8,32.45,32.45,0,0,1,14.85,3.88c1.28.73,2.73,1.28,3,3-4.54.18-9.23-.22-13.59.48-13.9,2.23-27.93,2.56-41.88,3-21.27.74-42.57.63-63.84,1.91a279.94,279.94,0,0,1-32.9,0c-7.64-.43-15.31-.77-22.95-1.31-8.85-.62-17.53-2.34-26.34-2.94a191.37,191.37,0,0,1-36.07-6.17c-7.3-1.94-9.49-.33-10,7.45-.68,9.59,1.19,18.9,3.06,28.09q6.36,31.14,14,62c2.9,11.72,9.28,21.18,21.72,24.83,6.08,1.79,12.27,3.21,18.42,4.79,8.06,2.06,16.31,2.26,24.55,2.93a270.68,270.68,0,0,0,39,.26c13-.83,26-.29,39-1.06,7-.42,14.34.18,21.48.25,15.79.16,31.59-1,47.39-1.48,5.78-.19,11.58.17,17.35-.1,10.47-.48,20.45-3.09,29.33-8.8,16.52-10.63,26-26.57,31.16-44.86s11.56-36.44,15.86-55.09c2.25-9.72,5.45-19.28,5.17-29.45-.12-4.33-.76-4.73-4.63-3.16-6.42,2.6-12.76,5.36-19.44,7.4-3.8,1.16-7.78,1.51-11.51,3C1087.65,476.1,1090,476.62,1089.77,477.27Z" transform="translate(-494.62 -187.29)"/><path class="c" d="M832.85,612.39c21.31,6.28,43.21,5.25,65,5.35,17,.07,34,.7,51,1.17,11.22.31,22.46.75,33.66.46,20-.52,40.1-1.37,60.11-2.73,7.54-.51,15-2.81,22.45-4.3,36.59,1.07,73.19,2.08,109.59,6.4,4.39.52,8.72,1.65,13,2.59,1,.21,2.24.55,2.2,1.81s-1.33,1.44-2.29,1.76a65.92,65.92,0,0,1-13,2.6c-35.81,4.22-71.82,5.29-107.82,6.35-73.21,2.16-146.44,2.09-219.66.42-35.11-.81-70.23-2-105.24-5.07-8.55-.75-17.13-1.43-25.52-3.4a28.23,28.23,0,0,1-3.41-1c-.92-.34-2.21-.55-2-1.93.13-1,1.15-1.27,2-1.55a64.67,64.67,0,0,1,13.48-2.69c26.52-3.16,53.17-4.4,79.83-5.4C815.08,612.94,824,612.68,832.85,612.39Z" transform="translate(-494.62 -187.29)"/><path class="b" d="M777.52,406c-3.45.6-6.9,1.26-10.37,1.77-2,.28-4,.07-5-1.93a5.79,5.79,0,0,1,.51-5.86c1.05-1.7,2.79-3.12,2.71-5.41a5.19,5.19,0,0,0,2.95-1.84C784.87,374,804.84,358.93,823,341.94c12.55-11.73,25.46-23.05,41-32-2.48-1.47-4.59-2.63-6.61-3.94-8.24-5.31-10.21-13.21-4.7-21.35,6.36-9.38,15.15-15.07,26.91-14.24,7.24.51,11.86,5.35,12.87,12.56a62.13,62.13,0,0,1,.63,9.73c-.06,3,.94,3.1,3.35,2.18q18.9-7.17,38.22-13.09c36.7-11.16,74.12-18.33,112.5-20a68.23,68.23,0,0,1,11.53.25c5.46.7,6.5,3.64,3,7.83-3.08,3.65-7,6.34-10.86,9.12-9.7,7-20.53,12.16-30.63,18.5-1.52.21-2.85.69-3.38,2.32a14.34,14.34,0,0,0-5.37,1.94c-24.27,12.63-49,24.32-73.82,35.77Q916.31,347.31,895,357a191.74,191.74,0,0,0-18.79,8.3c-.43,0-.85.05-.77.66l.06-.07c-9.88,3.29-19.23,7.82-28.6,12.31-6,2.45-12.52,4-17.71,8.26a6.14,6.14,0,0,0-2.15.06c-8.76,3.78-17.48,7.63-26.22,11.46-5.92,2.6-12.73,3-18.06,7.09C781,405.35,779.13,404.83,777.52,406Zm-2.11-6.26a8,8,0,0,0,3.78-1c7.83-3.07,15-7.49,22.63-11,19.61-8.9,39.77-16.58,58.95-26.44,10.91-5.61,21.91-11,32.92-16.43,11.9-5.84,23.87-11.55,35.79-17.36,11.38-5.54,22.78-11.08,34.24-16.43,10.15-4.73,20.22-9.62,30.31-14.46,12.22-5.86,24.21-12.18,36.23-18.43,4.31-2.24,8.45-4.79,12.61-7.29,1-.59,2-1.53,1.33-2.93-.47-1-1.48-.76-2.36-.64-11.65,1.61-23.34,3.05-34.95,4.89-13.66,2.15-27.17,4.94-40.64,8.13a560.24,560.24,0,0,0-62.5,18.92c-7.09,2.58-13.34,6.71-19.78,10.47-4.17,2.43-9.51,1.53-13.16,4.76a110,110,0,0,1-11.59,8.68,238.59,238.59,0,0,0-20.48,16.12c-8.88,7.52-18,14.8-26.94,22.21-6.59,5.45-13.09,11-19.74,16.38s-12.41,11.43-18.38,17.39c-1,1-1.75,2.11-1,3.55C773.22,400.05,774.43,399.62,775.41,399.71Zm87.14-116.42c7.36-2.61,14.43-6.23,23.54-4.42C878.33,273.6,872.23,274.87,862.55,283.29Z" transform="translate(-494.62 -187.29)"/><path class="d" d="M1051.43,468.44c-4.35,1.32-8.5-.6-12.46-1.49-12.61-2.81-25-6.44-37.48-9.95-5.94-1.67-11.75-3.79-17.62-5.71.2-4.72.56-9.4,2.55-13.79a64.32,64.32,0,0,1,5.06-10.8c4.95-8,9.43-16.3,14.57-24.17,3.64-5.59,3.07-13.07,8.4-17.78,6.83-3,14-3.48,21.32-2.74a64.16,64.16,0,0,1,13.94,4.32c3.92,2.4,8.3,4.13,11.21,8,.86,1.15,2,2.23,3.73,1.57l-.08,0c2.11,1.92,3.82.29,5.42-.77,4.17-2.79,4.24-7.09,3.86-11.48a3.54,3.54,0,0,1,2.57-2.58c4.39,2.76,6.79,7.49,10.66,10.75a4.26,4.26,0,0,0,1.91,3.27,4.69,4.69,0,0,1-2.87,5.36c-3,1.5-6,3.14-8.91,4.81-1.55.89-3.35,1.91-1.37,4,3.2,3.44,6.45,6.83,9.67,10.24a3.59,3.59,0,0,0,1.66,3.73,25.28,25.28,0,0,1-.1,18.49,5.59,5.59,0,0,0-2.4,3.31l-10,10.52C1066.94,459.86,1059.76,465.2,1051.43,468.44Zm-38.64-58.1c-.08,4.09,1.54,5.45,4.57,3.38,7.46-5.09,12.85-12.07,16.87-20.1.44-.89.8-2-.09-2.9s-2-.28-2.91.06a32.4,32.4,0,0,0-15.69,11.74A12.7,12.7,0,0,0,1012.79,410.34Z" transform="translate(-494.62 -187.29)"/><path class="a" d="M1085.51,419.55c-3.22-3.41-6.47-6.8-9.67-10.24-2-2.12-.18-3.14,1.37-4,2.93-1.67,5.89-3.31,8.91-4.81a4.69,4.69,0,0,0,2.87-5.36c12.3-6.21,19.36-15.8,19.28-30-5,10.59-10,21.12-21.19,26.75-3.87-3.26-6.27-8-10.65-10.75,2.13-2.22,4.41-4.31,6.35-6.67,4.69-5.71,10.15-10.93,12.4-18.3.6,0,.79-.39.89-.87l.26-.15-.21.19-.89.88c-8.92,9.43-17.94,18.77-26.23,28.76a18,18,0,0,0-4.35,11c-1.74.66-2.87-.42-3.73-1.57-2.91-3.86-7.29-5.59-11.21-8,2.08-20.58,13.2-34.76,31.38-43.67,6.12-3,12.37-5.69,18.27-9.13a36.16,36.16,0,0,1,6.47-2.91c5.07-1.72,5.6-1.29,5.42,4.07a30.7,30.7,0,0,0,.89,9.7c3.83,13.05,4,25.89-2.64,38.5,3.48,1.24,6.5.11,9.48.05,14.07-.32,28.17.44,42.21-1.05,2.9-.31,5.11.6,3.88,3.91-6.1,16.27-9.29,33.82-20.86,47.72-12.12,14.57-27.82,22.11-46.51,23.26-7.64.47-15.41.79-23-1.18q5-5.27,10-10.52c3.21.48,6.4,1.12,9.63,1.42,17.62,1.67,32.81-2.9,43.83-17.61,1-1.38,3.72-3.16,2.19-4.64s-3.3,1.23-4.56,2.34c-14,12.26-30.27,17.16-48.69,15.18a25.28,25.28,0,0,0,.1-18.49,149.86,149.86,0,0,0,47.55-20c-5.48,1-9.84,1.94-13.77,3.91C1109.66,412.85,1097.26,415.25,1085.51,419.55Zm-8-66.91c-9.8,8-20.66,24.83-20.38,32.89,3.56-8.55,8.63-14.85,13.21-21.48,2.55-3.69,6.34-6.68,7.11-11.48.48.09.82.06.46-.55Zm23.68,42.63a48,48,0,0,0,13.64-7.62C1109.9,389.2,1104.32,389.41,1101.14,395.27Z" transform="translate(-494.62 -187.29)"/><path class="c" d="M1035.77,382c-7.32-.74-14.49-.29-21.32,2.74-7.94-2.18-15.83-1.23-23.69.37-10.37,2.11-20,6.23-29.47,10.82-1.68.81-3.2,1.55-4.76-.23a4,4,0,0,1-.35-4.93,16,16,0,0,1,2.35-3.2c3.86-4.16,8.57-7.24,13.42-10.08,4.2-2.46,8.46-4.8,12.7-7.19A128.18,128.18,0,0,0,967,373c-17.19,3.31-24.6,10.62-27.88,27.62A37.74,37.74,0,0,1,928,396.44c2.84-1.46,6-2.17,8.4-4.62,6.59-6.72,6.66-14.79.42-21.93-3.68-4.21-8.88-6.22-12.8-10,8.38-9.47,19.46-14.52,31.22-17.69,16.67-4.5,31.78-11.44,45.26-22.43,9-7.37,19.13-13.42,30.67-16.45,3.63.15,6.86,1.61,10,3.19,2,1,3.75,2.47,3.16,5.21-1.19,5.6-2,11.31-4.41,16.58-.63,1.36-1.45,2.77-.93,4.65,7.18-2.38,13-6.63,18.67-11,4.22-3.22,4.07-3.42,6.52,1.24.21,15-7,27.2-14.69,39.19C1045.18,369.14,1040.35,375.5,1035.77,382Zm-60.85-41.89.36,1,3.44-.49c8.57-1.33,17.16-3.61,25.75-.41,3.12,1.17,5.73.5,8.4-1.06a68.09,68.09,0,0,0,21.13-19.3c1.4-1.93,3.43-4.43,1.52-6.78s-5.23-2.65-8.21-1.91a17.52,17.52,0,0,0-4.38,2.12c-5.26,3.05-9.86,7-14.53,10.85-5.95,4.91-11.95,9.52-19.83,11.22C983.9,336.37,979.46,338.5,974.92,340.12Z" transform="translate(-494.62 -187.29)"/><path class="c" d="M1204.66,337.3c-2.79-6.73-4.88-12.37-7.42-17.8-17.24-36.82-44.43-64.69-78.44-86.2-38.67-24.44-81.13-37.63-126.52-42-13.59-1.3-27.18-1.62-40.83-1.69,5-1.48,10.09-1.58,15.18-1.85,59.1-3.2,114.3,9.15,163.8,42.52,33.6,22.65,58.59,52.37,71,91.61,1.29,4.08,2.17,8.29,3.2,12.46A18.18,18.18,0,0,1,1204.66,337.3Z" transform="translate(-494.62 -187.29)"/><path class="a" d="M1064.15,323.24c-2.45-4.66-2.3-4.46-6.52-1.24-5.69,4.34-11.49,8.59-18.67,11-.52-1.88.3-3.29.93-4.65,2.45-5.27,3.22-11,4.41-16.58.59-2.74-1.13-4.19-3.16-5.21-3.15-1.58-6.38-3-10-3.19-.38-1.59-1.78-1.21-2.83-1.42-3.84-.75-7.69-1.42-11.53-2.13.53-1.63,1.86-2.11,3.38-2.32,4.32-1,8.7-1.72,13-2.88a42.49,42.49,0,0,1,29.42,2.47,12.08,12.08,0,0,0,12.12-.61c9.37-5.55,15.45-3.28,19.82,6.62a15.29,15.29,0,0,1,1.27,3.3c.35,1.95,2.46,4.28.67,5.74s-4.5-.23-6.76-.72-3.09-2.1-3.08-4.28c0-2.38.35-5-3.24-5.11s-8.15,2.59-8.59,5.6a19.94,19.94,0,0,0,.75,8.77c3.43,11-1.12,20-7.81,29.87C1067.42,337.57,1068.17,330,1064.15,323.24Z" transform="translate(-494.62 -187.29)"/><path class="e" d="M753.19,500.21c.64.28,1.68.4,1.85.86,2.49,6.64,7.86,9.77,14.12,11.88,8.42,4.89,17.36,8.73,26.08,13,3.06,6.9,3.22,14.48,5,21.7.67,2.7-3,.66-3.85,2.25-17.66-2.79-33.45-9.69-46.12-22.46C742.34,519.49,744.17,505.73,753.19,500.21Z" transform="translate(-494.62 -187.29)"/><path class="e" d="M1120.12,542.76c-5-1.38-5.36-1.76-3-6.71,2.55-5.46,3.86-11.29,5.84-16.92a5.11,5.11,0,0,1,1.8-2.92c6.61-3.5,13.56-6.35,19.89-10.37,3.4-.71,6.09-2.75,8.85-4.66a9.3,9.3,0,0,0,4.18-9.43c3.91.45,6.36,2.95,8.06,6.14,3.25,6.12,4.79,16.14-2.81,23.21A85.53,85.53,0,0,1,1120.12,542.76Z" transform="translate(-494.62 -187.29)"/><path class="a" d="M1161.09,531.32l.62.24c-.13.2-.24.52-.4.55s-.46-.16-.69-.26Z" transform="translate(-494.62 -187.29)"/><path class="a" d="M774.92,286.73l-.31.47c0-.09,0-.2,0-.24a1,1,0,0,1,.32-.18Z" transform="translate(-494.62 -187.29)"/><path class="e" d="M1089.77,477.27c.27-.65-2.12-1.17.17-2.1,3.73-1.52,7.71-1.87,11.51-3,6.68-2,13-4.8,19.44-7.4,3.87-1.57,4.51-1.17,4.63,3.16.28,10.17-2.92,19.73-5.17,29.45-4.3,18.65-10.69,36.69-15.86,55.09s-14.64,34.23-31.16,44.86c-8.88,5.71-18.86,8.32-29.33,8.8-5.77.27-11.57-.09-17.35.1-15.8.49-31.6,1.64-47.39,1.48-7.14-.07-14.47-.67-21.48-.25-13,.77-26,.23-39,1.06a270.68,270.68,0,0,1-39-.26c-8.24-.67-16.49-.87-24.55-2.93-6.15-1.58-12.34-3-18.42-4.79-12.44-3.65-18.82-13.11-21.72-24.83q-7.64-30.84-14-62c-1.87-9.19-3.74-18.5-3.06-28.09.55-7.78,2.74-9.39,10-7.45a191.37,191.37,0,0,0,36.07,6.17c8.81.6,17.49,2.32,26.34,2.94,7.64.54,15.31.88,22.95,1.31a279.94,279.94,0,0,0,32.9,0c21.27-1.28,42.57-1.17,63.84-1.91,14-.48,28-.81,41.88-3,4.36-.7,9-.3,13.59-.48,3.92.75,6.77,3.5,10,5.51,8.24,5.18,16.35,10.55,25,15,2,1,3.84,1.45,5.83.23l1.63.78.13.15.65.73.2.27a4.18,4.18,0,0,0,4.16,3.81c1.61,0,2.13-2.36,2.49-3.67.66-2.4,4.9-2.89,3.22-6.32a1.33,1.33,0,0,1,.41-.14c5.69.1,4.22-3.75,3.85-7l1.16-.31c.8-.11,1.53-.44,1.17-1.38-1.21-3.24-.59-6.13,2.14-9h-9.89l-2.55,0c-.37-1.12-1-2-2.32-1.78ZM972.86,544.76c3.67-5.88,9-9.45,12.29-14.81,3.44-5.6,4-9.76,1.28-12.14s-6.75-1.6-11.78,2.81c-1.9-5.42-6.59-5.68-11.18-6-3.1-.18-5.93.67-7.54,3.65s-1.09,6,.68,8.83c1.85,2.94,4.63,5,7.34,7C967.5,536.86,970.9,539.69,972.86,544.76ZM860.75,568.19c-2.32-5.85-7.17-5.47-11.73-5.48-3.12,0-5.92,1-7.22,4.18s-.66,6,1.36,8.76a23.7,23.7,0,0,0,6.35,5.47C853.8,584,858,586.81,860.6,592c2-4,4.73-6.72,7.16-9.69,2.72-3.33,5.12-6.86,6.18-11.15.69-2.82.51-5.45-2.14-7.06-2.84-1.73-5.72-1.13-8.23.91A27.77,27.77,0,0,0,860.75,568.19Zm209.65-48.65c-1.24-5.68-6-6.42-10.42-7.33-3.09-.62-6,.11-7.9,2.8s-1.84,5.55-.59,8.44c1.31,3.06,3.65,5.36,6,7.57,3.58,3.31,7,6.74,8.36,11.62,3.34-2.9,6.5-5.54,9.55-8.3s5.71-5.59,7.38-9.32c1-2.25,1.47-4.55-.16-6.72s-4-2.21-6.42-2.1S1072.57,518.46,1070.4,519.54Zm-191.94-7.31c-3.17-5.19-7.68-4.12-11.85-3.62-3.23.39-6,2-6.94,5.41s.24,6.37,2.92,8.76,6,3.71,9.28,5.1c4,1.7,7.73,3.67,10.37,7.64,3-7.38,8.28-13.34,9.59-21.16.58-3.51.27-6.84-3.37-8.21-3.4-1.29-6.36.24-8.42,3.24C879.55,510.11,879.18,510.92,878.46,512.23Zm149.29,73.55c2.08-2,3.64-3.56,5.3-5s3.72-3,5.42-4.59c2.67-2.57,5.3-5.25,6.56-8.84.85-2.46,1.13-5.15-1.18-7a6.81,6.81,0,0,0-7.54-.68,14.07,14.07,0,0,0-2.51,1.8c-.76.62-1.46,1.19-1.9-.23-1.6-5.17-6.23-5.55-10.36-6.16-6.72-1-10.9,4.93-8.13,11.2,1.41,3.19,4,5.51,6.39,7.88C1023.1,577.37,1026.54,580.46,1027.75,585.78ZM937.47,573c-3.44-5-8.36-3.89-12.83-2.82-6.52,1.56-8.17,8.19-3.61,13.15,2.28,2.48,5.33,3.71,8.35,4.94,4.66,1.9,9.26,3.88,12.23,8,1.94-3.66,3.8-7.19,5.66-10.72,2-3.82,3.71-7.76,3.84-12.18.08-2.7-.66-5.11-3.33-6.21a6.46,6.46,0,0,0-7,1.48A28.52,28.52,0,0,0,937.47,573Zm184.26-101.84c-4.15-.21-5.82,1.87-7.15,4.54-2.6,5.21-3.89,10.87-5.58,16.38-6,19.45-9.35,39.46-12.35,59.58C1105,524.93,1113.28,498.25,1121.73,471.11Z" transform="translate(-494.62 -187.29)"/><path class="d" d="M829.21,386.49c5.19-4.28,11.67-5.81,17.71-8.26a24.68,24.68,0,0,1,17.63,7.64c2.07,2.06,4.18,4.08,6.27,6.12-.28,2.78-.69,2.86-3.65,1.63-5.52-2.3-10.56-5.78-16.74-7.2-.16,2.67,2.11,3.61,3,5.33-.91.72-2.38-.23-3.15,1,10.31,8.7,9.52,5.73,16.31,23.84,1.46-6.28,0-11.56-1.71-16.82,6.53,3.24,12.39,7.34,16.86,13.22-7,1.37-12.09,5.43-15.72,11.45-10.67,1.18-21.36,2.27-32,3.62-2.88.36-3.92-1.55-4.54-3.28-2.36-6.57-7.11-11.51-11-17.06C819.73,399.47,824.5,393,829.21,386.49Z" transform="translate(-494.62 -187.29)"/><path class="f" d="M1016.77,299.79c3.84.71,7.69,1.38,11.53,2.13,1,.21,2.45-.17,2.83,1.42-11.54,3-21.64,9.08-30.67,16.45-13.48,11-28.59,17.93-45.26,22.43-11.76,3.17-22.84,8.22-31.22,17.69-1.28,1-2.47.24-3.71-.13-7.61-2.29-15.3-3.7-23.28-2-.58.12-1.31-.48-2-.74q21.27-9.76,42.56-19.53c24.83-11.45,49.55-23.14,73.82-35.77A14.34,14.34,0,0,1,1016.77,299.79Z" transform="translate(-494.62 -187.29)"/><path class="e" d="M950.18,437.31l-1-.28-.8-.57-1-.26c-1-3.06-3.85-2.79-6.24-3.3l-.85-.27c-.5-2.54-2.41-2.53-4.37-2.41l-1-.27-.77-.68-.13-.08c-1.08-2.19-2.95-2.76-5.2-2.54l-1-.29a11.19,11.19,0,0,0-8.71-5.08l-.19-.13c-2.54-3.21-6.81-4.09-9.83-6.83,5.46-1.47,10.52,1.16,15.68.21l.32-.11.29.18c.55,1.43,1.68,1.14,2.78.94l0-.13c.51,1.57,1.74,1.14,2.86,1l.34-.09.3.17c.44,1,1.36.91,2.22.93,1.28-.29,2.28.5,3.3,1s1.85,1.29,2.77.47-.16-2-.53-2.69a12.9,12.9,0,0,0-8-6.53c-8.58-2.65-16.81-2-24.56,2.82-1.25-1.09-3.14-.22-4.38-1.48-1.8-1.84-6.07-1.61-5.92-4.46s4-2.51,6.25-3.11c12.36-3.26,24.56-3.53,36.15,3,10.36,5.81,14.62,15,14.88,26.53C953.9,435.69,953.05,437.26,950.18,437.31Z" transform="translate(-494.62 -187.29)"/><path class="f" d="M1055.77,481.89c0-.45,0-.89,0-1.34.35-6.6.37-6.74,7-6a186.68,186.68,0,0,1,21.35,3.89c3.84.89,5.17,2.95,4.19,6.67-1.2,4.54-3.54,8.67-4,13.53-.24,2.53-3.19,2.14-5.21,1.51-3-.95-5.48-2.87-8-4.65a101.23,101.23,0,0,0-11.88-7.74C1055.83,486,1055.74,485.74,1055.77,481.89Z" transform="translate(-494.62 -187.29)"/><path class="f" d="M861.41,456.69c-14.15.21-28.3.55-42.86-1.53,4-5.78,11.71-7.46,13.62-14.46,5.28.82,10.74,1.4,15.72-.57a11,11,0,0,1,10.77.83C858.44,446.4,858.93,451.72,861.41,456.69Z" transform="translate(-494.62 -187.29)"/><path class="b" d="M950.18,437.31c2.87-.05,3.72-1.62,3.66-4.32-.26-11.51-4.52-20.72-14.88-26.53-11.59-6.5-23.79-6.23-36.15-3-2.24.6-6.11.32-6.25,3.11s4.12,2.62,5.92,4.46c1.24,1.26,3.13.39,4.38,1.48a27.21,27.21,0,0,0,4.73.44c4.51-.34,8.94-.36,13.18,1.55-5.16,1-10.22-1.68-15.68-.21,3,2.74,7.29,3.62,9.83,6.83-3.45-.2-5.87-2.59-8.68-4.12-6.09-3.31-12.14-6.67-18.11-10.17-3.76-2.21-3.67-2.92.34-5A51.6,51.6,0,0,1,914,396.12h8c1.1-.1,2.11,1.42,3.28.18l2.68.13a37.74,37.74,0,0,0,11.16,4.14c8.18,4.37,14.12,10.55,16.07,19.94a50.24,50.24,0,0,1,.37,19.28h0A7,7,0,0,1,950.18,437.31Z" transform="translate(-494.62 -187.29)"/><path class="e" d="M896.91,422.7a2.28,2.28,0,0,1,1.87,1.15l.72.68.16.15.77.72.13.09c.25.81.86.92,1.58.82l.2.13c-.07,1.83,1.12,1.8,2.4,1.63l1.2,1c-.18,1.89,1,1.85,2.35,1.72l.24.23c-.09.72.07,1.3.86,1.51l.07.07c.24.81.83.94,1.56.82,6.86,6,14.58,10.7,22.4,15.28.07,3.57-2.81,2.39-4.65,2.87l-.91-.24a1.23,1.23,0,0,0-1.49-.74l-.29-.21c0-1.78-1.26-1.64-2.47-1.54l-.21-.16c0-1.9-1.26-1.74-2.54-1.55l-1.06-1c-.26-.28-.52-.57-.79-.85l-.13,0c-.14-.63-.32-.67-.54,0a2.32,2.32,0,0,1-2.05-1.12c-.09-2.3-1.56-2.63-3.43-2.38l-.17-.12c-.33-.64-.25-2-1.55-.82a2.41,2.41,0,0,1-2-1.11l-.74-.66-.15-.1c-.27-.78-.88-.88-1.58-.78l-.21-.16-.75-.71-.16-.09c-.8-1.93-2.42-2.47-4.32-2.54l-.12-.09c-.47-1.2-1.47-.95-2.41-.87l-1.21-.86c-.65-1.47-1.91-1.77-3.34-1.78L894,431a3.94,3.94,0,0,0-4.37-1.59l-1-.26c-.57-.9-1.2-1.63-2.38-.87a2.35,2.35,0,0,1-2-.8c-2.47-2.8-6.21-2.15-9.27-3.34-2-.79-2.47-1.68-.75-2.94,3.32-2.42,6.82-4.79,11.24-3.37,1.6.51,2.86,0,4.25-.38a2.38,2.38,0,0,1,2,1.18l.65.56.27.2c.16.74.7.83,1.33.76l1.26,1.1.73.66.19.17Z" transform="translate(-494.62 -187.29)"/><path class="b" d="M861.41,456.69c-2.48-5-3-10.29-2.75-15.73.32-.92.65-1.84,1-2.76,5.93.19,10.88,3.41,16.29,5.2,10.22,3.38,20.48,6.62,30.71,10a17.82,17.82,0,0,1,2.7,1.41,11.52,11.52,0,0,1-4.8-.42c-12.41-3.75-24.77-7.62-36.69-12.73-3.55-1.52-4.05-.28-4,2.87a13.15,13.15,0,0,0,12.39,13.15c1.61.12,3.21.3,4.81.53,9,1.33,18.11,2.8,27.25,1.8,1.88-.21,5.25.66,5.74-1.77.39-2-3.25-1.34-4.41-2.94-.08-.12-.14-.26-.22-.39,6.45.7,12.43,3.09,18.59,5.7-4.5.47-9,1.12-13.49,1.37-15.29.86-30.29-1.84-45.32-4C866.62,457.56,863.83,458.14,861.41,456.69Z" transform="translate(-494.62 -187.29)"/><path class="f" d="M870.82,392c-2.09-2-4.2-4.06-6.27-6.12a24.68,24.68,0,0,0-17.63-7.64c9.37-4.49,18.72-9,28.6-12.31-5.48,6.56-6.67,14-4.78,22.19A6.58,6.58,0,0,1,870.82,392Z" transform="translate(-494.62 -187.29)"/><path class="f" d="M986.42,437.5c-2,4.39-2.35,9.07-2.55,13.79-9.63-3.34-19.45-6.24-28.3-11.49h0Z" transform="translate(-494.62 -187.29)"/><path class="f" d="M829.21,386.49c-4.71,6.51-9.48,13-10.72,21.24-5.73-3.52-11.3-7.32-17.65-9.72,8.74-3.83,17.46-7.68,26.22-11.46A6.14,6.14,0,0,1,829.21,386.49Z" transform="translate(-494.62 -187.29)"/><path class="f" d="M752.87,435.89c2.11-1.22,3.32.54,4.59,1.49,9.08,6.76,18.89,11.27,30.44,12.11,5.51.4,10.41-1.42,15.59-2.12,2.49-.33,4.92-.79,7.52,0C782.65,456.82,764.45,452.11,752.87,435.89Z" transform="translate(-494.62 -187.29)"/><path class="f" d="M811.48,434.4c-8.9-4-18.54-4.69-27.94-6.52-11.35-2.22-22-6.57-32.29-11.68,5.46,0,10.67,0,15.34,3.86s10.74,3.9,16.44,4.73c7,1,14.06,2.11,20.78,4.54a15.46,15.46,0,0,1,7.61,5.13Z" transform="translate(-494.62 -187.29)"/><path class="d" d="M859.64,438.2c-.33.92-.66,1.84-1,2.76a11,11,0,0,0-10.77-.83c-5,2-10.44,1.39-15.72.57.08-.57.1-1.16.22-1.72,1.5-7,1.46-6.73,8.82-5.24C847.42,435,853.58,436.37,859.64,438.2Z" transform="translate(-494.62 -187.29)"/><path class="b" d="M889.68,417.41c-1.39.35-2.65.89-4.25.38-4.42-1.42-7.92.95-11.24,3.37-1.72,1.26-1.29,2.15.75,2.94,3.06,1.19,6.8.54,9.27,3.34-6.08-1-12-2.83-18.22-3,3.63-6,8.7-10.08,15.72-11.45C884.63,414,887.78,414.58,889.68,417.41Z" transform="translate(-494.62 -187.29)"/><path class="f" d="M864.85,399.78c1.71,5.26,3.17,10.54,1.71,16.82-6.79-18.11-6-15.14-16.31-23.84.77-1.24,2.24-.29,3.15-1A38.47,38.47,0,0,1,864.85,399.78Z" transform="translate(-494.62 -187.29)"/><path class="f" d="M888.52,373.31c7.47-9.46,18.21-8.56,29,2.16C908.18,370.83,898.57,369.72,888.52,373.31Z" transform="translate(-494.62 -187.29)"/><path class="f" d="M777.52,406c1.61-1.14,3.5-.62,5.26-.87,3.57,2.28,7.86,2.08,11.72,3.45,5.78,2,11.55,4,16.64,7.65C800.27,411.62,788.69,409.48,777.52,406Z" transform="translate(-494.62 -187.29)"/><path class="b" d="M1103.18,492.5c.37,3.24,1.84,7.09-3.85,7a1.33,1.33,0,0,0-.41.14c1.68,3.43-2.56,3.92-3.22,6.32-.36,1.31-.88,3.71-2.49,3.67a4.18,4.18,0,0,1-4.16-3.81c1.15-.2,2.74-.07,3.06-1.35.72-2.88,3-2.35,5.26-2.35-.43-1.94-2.61-4.3,1.2-4.68,1.1-.1,1.3-1.26,1-2.11C1098.24,491.05,1101.17,492.39,1103.18,492.5Z" transform="translate(-494.62 -187.29)"/><path class="b" d="M928.77,451.56c1.84-.48,4.72.7,4.65-2.87a35.59,35.59,0,0,1,11.91,5.75C940.64,457.24,934.3,456.05,928.77,451.56Z" transform="translate(-494.62 -187.29)"/><path class="b" d="M1097.76,481.8h9.89c-2.73,2.88-3.35,5.77-2.14,9,.36.94-.37,1.27-1.17,1.38C1102.07,488.77,1101.06,484.56,1097.76,481.8Z" transform="translate(-494.62 -187.29)"/><path class="b" d="M919.11,421.28a11.19,11.19,0,0,1,8.71,5.08A20.81,20.81,0,0,1,919.11,421.28Z" transform="translate(-494.62 -187.29)"/><path class="b" d="M941.17,432.9c2.39.51,5.2.24,6.24,3.3C945.2,435.35,942.52,435.39,941.17,432.9Z" transform="translate(-494.62 -187.29)"/><path class="b" d="M928.86,426.65c2.25-.22,4.12.35,5.2,2.54A6.89,6.89,0,0,1,928.86,426.65Z" transform="translate(-494.62 -187.29)"/><path class="b" d="M936,430.22c2-.12,3.87-.13,4.37,2.41A6.32,6.32,0,0,1,936,430.22Z" transform="translate(-494.62 -187.29)"/><path class="b" d="M901.25,434.66c1.9.07,3.52.61,4.32,2.54A4.8,4.8,0,0,1,901.25,434.66Z" transform="translate(-494.62 -187.29)"/><path class="b" d="M912.86,441.75c1.87-.25,3.34.08,3.43,2.38C915,443.55,913.58,443.16,912.86,441.75Z" transform="translate(-494.62 -187.29)"/><path class="b" d="M889.66,429.37A3.94,3.94,0,0,1,894,431C892.37,431,890.77,430.87,889.66,429.37Z" transform="translate(-494.62 -187.29)"/><path class="b" d="M1092.89,480.05c1.37-.18,1.95.66,2.32,1.78C1093,483.14,1093.57,480.77,1092.89,480.05Z" transform="translate(-494.62 -187.29)"/><path class="c" d="M925.28,396.31c-1.17,1.24-2.18-.28-3.28-.18Q923.75,394.38,925.28,396.31Z" transform="translate(-494.62 -187.29)"/><path class="b" d="M894.17,431.06c1.43,0,2.69.31,3.34,1.78C896.15,432.72,894.84,432.49,894.17,431.06Z" transform="translate(-494.62 -187.29)"/><path class="b" d="M920.86,447.12c1.28-.19,2.54-.35,2.54,1.55A3,3,0,0,1,920.86,447.12Z" transform="translate(-494.62 -187.29)"/><path class="b" d="M904.74,428.07c-1.28.17-2.47.2-2.4-1.63A2.64,2.64,0,0,1,904.74,428.07Z" transform="translate(-494.62 -187.29)"/><path class="b" d="M923.61,448.83c1.21-.1,2.44-.24,2.47,1.54A2.51,2.51,0,0,1,923.61,448.83Z" transform="translate(-494.62 -187.29)"/><path class="b" d="M908.29,430.78c-1.3.13-2.53.17-2.35-1.72A2.85,2.85,0,0,1,908.29,430.78Z" transform="translate(-494.62 -187.29)"/><path class="b" d="M886.25,428.24c1.18-.76,1.81,0,2.38.87C887.73,429.09,886.82,429.13,886.25,428.24Z" transform="translate(-494.62 -187.29)"/><path class="b" d="M1088.07,504.66l-1.63-.78C1087.69,502.67,1088,503.46,1088.07,504.66Z" transform="translate(-494.62 -187.29)"/><path class="b" d="M911.14,440.81c1.3-1.21,1.22.18,1.55.82Z" transform="translate(-494.62 -187.29)"/><path class="b" d="M898.72,433.7c.94-.08,1.94-.33,2.41.87C900.23,434.55,899.3,434.61,898.72,433.7Z" transform="translate(-494.62 -187.29)"/><path class="b" d="M909.39,432.52c-.79-.21-.95-.79-.86-1.51A1.44,1.44,0,0,1,909.39,432.52Z" transform="translate(-494.62 -187.29)"/><path class="b" d="M902.14,426.31c-.72.1-1.33,0-1.58-.82A1.57,1.57,0,0,1,902.14,426.31Z" transform="translate(-494.62 -187.29)"/><path class="b" d="M911,433.41c-.73.12-1.32,0-1.56-.82A1.53,1.53,0,0,1,911,433.41Z" transform="translate(-494.62 -187.29)"/><path class="b" d="M893.92,420.11c-.63.07-1.17,0-1.33-.76C893.17,419.37,893.71,419.45,893.92,420.11Z" transform="translate(-494.62 -187.29)"/><path class="b" d="M926.37,450.58a1.23,1.23,0,0,1,1.49.74A1.39,1.39,0,0,1,926.37,450.58Z" transform="translate(-494.62 -187.29)"/><path class="b" d="M906.69,438.16c.7-.1,1.31,0,1.58.78Z" transform="translate(-494.62 -187.29)"/><path class="f" d="M812.69,418a5.3,5.3,0,0,1-.29-.71c0-.06.18-.17.28-.26a4.88,4.88,0,0,1,.28.68C813,417.78,812.8,417.9,812.69,418Z" transform="translate(-494.62 -187.29)"/><path class="f" d="M811.42,434.46l.9.88,0,0-.86-.9Z" transform="translate(-494.62 -187.29)"/><polygon class="f" points="317.7 248.04 317.79 248.14 317.72 248.02 317.7 248.04"/><path class="b" d="M948.36,436.46l.8.57Z" transform="translate(-494.62 -187.29)"/><path class="b" d="M905.73,437.29l.75.71Z" transform="translate(-494.62 -187.29)"/><path class="b" d="M892.32,419.15l-.65-.56Z" transform="translate(-494.62 -187.29)"/><path class="b" d="M918.34,445.25c.22-.64.4-.6.54,0l-.27,0Z" transform="translate(-494.62 -187.29)"/><path class="b" d="M895.91,421.87l-.73-.66Z" transform="translate(-494.62 -187.29)"/><polygon class="c" points="419.77 208.83 419.4 208.83 419.58 208.52 419.77 208.83"/><path class="b" d="M919,445.31c.27.28.53.57.79.85C919.53,445.88,919.27,445.59,919,445.31Z" transform="translate(-494.62 -187.29)"/><path class="b" d="M896.91,422.7l-.81-.66Z" transform="translate(-494.62 -187.29)"/><path class="f" d="M875.46,366c-.08-.61.34-.64.77-.66Z" transform="translate(-494.62 -187.29)"/><path class="b" d="M908.42,439l.74.66Z" transform="translate(-494.62 -187.29)"/><path class="b" d="M1088.85,505.54l-.65-.73Z" transform="translate(-494.62 -187.29)"/><path class="b" d="M899.5,424.53l-.72-.68Z" transform="translate(-494.62 -187.29)"/><path class="b" d="M900.43,425.4l-.77-.72Z" transform="translate(-494.62 -187.29)"/><path class="b" d="M934.19,429.27l.77.68Z" transform="translate(-494.62 -187.29)"/><path class="f" d="M795.24,526c-8.72-4.29-17.66-8.13-26.08-13,6.64-4,13.92-2.94,21.1-2.67a2.49,2.49,0,0,1,2.75,2.27C793.73,517,795.41,521.34,795.24,526Z" transform="translate(-494.62 -187.29)"/><path class="f" d="M1144.61,505.84c-6.33,4-13.28,6.87-19.89,10.37,1-3.68,2.09-7.35,3-11.05.46-1.77,1.5-2.18,3.2-2.22C1135.75,502.83,1140.37,503.4,1144.61,505.84Z" transform="translate(-494.62 -187.29)"/><path class="e" d="M775.41,399.71c-1-.09-2.19.34-2.77-.83-.71-1.44,0-2.56,1-3.55,6-6,11.79-12.07,18.38-17.39S805.21,367,811.8,361.56c9-7.41,18.06-14.69,26.94-22.21a238.59,238.59,0,0,1,20.48-16.12,110,110,0,0,0,11.59-8.68c3.65-3.23,9-2.33,13.16-4.76,6.44-3.76,12.69-7.89,19.78-10.47a560.24,560.24,0,0,1,62.5-18.92c13.47-3.19,27-6,40.64-8.13,11.61-1.84,23.3-3.28,34.95-4.89.88-.12,1.89-.35,2.36.64.67,1.4-.35,2.34-1.33,2.93-4.16,2.5-8.3,5.05-12.61,7.29-12,6.25-24,12.57-36.23,18.43-10.09,4.84-20.16,9.73-30.31,14.46-11.46,5.35-22.86,10.89-34.24,16.43-11.92,5.81-23.89,11.52-35.79,17.36-11,5.41-22,10.82-32.92,16.43-19.18,9.86-39.34,17.54-58.95,26.44-7.62,3.47-14.8,7.89-22.63,11A8,8,0,0,1,775.41,399.71Zm131.13-96.38c40.22-9.3,80.16-20,120.59-28.65A320.64,320.64,0,0,0,906.54,303.33Zm-9.23,18.72a28.67,28.67,0,0,0-12,3.29c-1.63.84-3.89,1.74-3.27,4.12.56,2.17,2.79,2.46,4.73,2.47,4.43,0,9-.87,13.25,0,5.43,1.12,7.94-1.41,10.11-5.46,1.42-2.65,4.45-5.55,1.75-8.28s-6.07-.12-9,1.13a3.13,3.13,0,0,0-1.36,1.1C900.5,322.1,899.25,323.1,897.31,322.05Zm-77.79,45.06c2.89-.44,5.94-1.65,8.7-1.19,5.93,1,7.63-2.86,9.4-6.94.7-1.6,1.75-3.55.17-5a3.92,3.92,0,0,0-5.31.45c-3.19,3.48-7.63,3.89-11.57,5.54a18,18,0,0,0-3.13,1.65c-1.42,1-3.47,1.83-2.6,4C815.9,367.54,817.9,367,819.52,367.11Zm31.7-27.2c2.48-.8,5.82-2.7,9.19-2.76,5.66-.09,6.45-3.92,7.56-7.8.47-1.64,1.25-3.69-.59-4.85s-3.85,0-4.73,1.31c-2.71,4-7.35,4.85-10.91,7.4a25.31,25.31,0,0,0-3.41,2.77c-.79.8-1.69,1.82-.86,3.1C848.12,340.07,849.23,340,851.22,339.91ZM943.94,310c4.42-.14,8.88.1,10.52-5.47.45-1.51,1.81-3,.37-4.48a3.24,3.24,0,0,0-4.48.16c-2.66,2.35-5.87,2.93-9.1,3.71a18.81,18.81,0,0,0-4.44,1.95c-1,.56-2.09,1.42-1.64,2.8.36,1.12,1.52,1.3,2.58,1.32C939.81,310,941.88,310,943.94,310Z" transform="translate(-494.62 -187.29)"/><path class="f" d="M862.55,283.29c9.68-8.42,15.78-9.69,23.54-4.42C877,277.06,869.91,280.68,862.55,283.29Z" transform="translate(-494.62 -187.29)"/><path class="a" d="M986.42,437.5l-30.86,2.3a50.24,50.24,0,0,0-.37-19.28c-2-9.39-7.89-15.57-16.07-19.94,3.28-17,10.69-24.31,27.88-27.62a128.18,128.18,0,0,1,17.65-2.65c-4.24,2.39-8.5,4.73-12.7,7.19-4.85,2.84-9.56,5.92-13.42,10.08a16,16,0,0,0-2.35,3.2,4,4,0,0,0,.35,4.93c1.56,1.78,3.08,1,4.76.23,9.46-4.59,19.1-8.71,29.47-10.82,7.86-1.6,15.75-2.55,23.69-.37-5.33,4.71-4.76,12.19-8.4,17.78-5.14,7.87-9.62,16.17-14.57,24.17A64.32,64.32,0,0,0,986.42,437.5Z" transform="translate(-494.62 -187.29)"/><path class="f" d="M1087.07,441.77c18.42,2,34.67-2.92,48.69-15.18,1.26-1.11,2.9-3.93,4.56-2.34s-1.15,3.26-2.19,4.64c-11,14.71-26.21,19.28-43.83,17.61-3.23-.3-6.42-.94-9.63-1.42A5.59,5.59,0,0,1,1087.07,441.77Z" transform="translate(-494.62 -187.29)"/><path class="f" d="M1012.79,410.34a12.7,12.7,0,0,1,2.75-7.82,32.4,32.4,0,0,1,15.69-11.74c.94-.34,2-.95,2.91-.06s.53,2,.09,2.9c-4,8-9.41,15-16.87,20.1C1014.33,415.79,1012.71,414.43,1012.79,410.34Z" transform="translate(-494.62 -187.29)"/><path class="f" d="M1085.51,419.55c11.75-4.3,24.15-6.7,35.44-12.38,3.93-2,8.29-2.93,13.77-3.91a149.86,149.86,0,0,1-47.55,20A3.59,3.59,0,0,1,1085.51,419.55Z" transform="translate(-494.62 -187.29)"/><path class="f" d="M1087.08,391.84c11.2-5.63,16.22-16.16,21.19-26.75.08,14.22-7,23.81-19.28,30A4.26,4.26,0,0,1,1087.08,391.84Z" transform="translate(-494.62 -187.29)"/><path class="f" d="M1064.65,395.89a18,18,0,0,1,4.35-11c8.29-10,17.31-19.33,26.23-28.76l0-.05c-2.25,7.37-7.71,12.59-12.4,18.3-1.94,2.36-4.22,4.45-6.35,6.67a3.54,3.54,0,0,0-2.58,2.58,24,24,0,0,0-9.28,12.25Z" transform="translate(-494.62 -187.29)"/><path class="a" d="M1064.57,395.92a24,24,0,0,1,9.28-12.25c.38,4.39.31,8.69-3.86,11.48C1068.39,396.21,1066.68,397.84,1064.57,395.92Z" transform="translate(-494.62 -187.29)"/><path class="f" d="M1077.4,352.57c-.77,4.8-4.56,7.79-7.11,11.48-4.58,6.63-9.65,12.93-13.21,21.48-.28-8.06,10.58-24.87,20.38-32.89Z" transform="translate(-494.62 -187.29)"/><path class="f" d="M1101.14,395.27c3.18-5.86,8.76-6.07,13.64-7.62A48,48,0,0,1,1101.14,395.27Z" transform="translate(-494.62 -187.29)"/><path class="f" d="M1096.07,355.25c-.1.48-.29.89-.89.87l0,.05.89-.88Z" transform="translate(-494.62 -187.29)"/><polygon class="f" points="601.5 168 601.71 167.81 601.45 167.96 601.5 168"/><path class="f" d="M1077.46,352.64l.4-.62c.36.61,0,.64-.46.55Z" transform="translate(-494.62 -187.29)"/><path class="a" d="M974.92,340.12c4.54-1.62,9-3.75,13.65-4.77,7.88-1.7,13.88-6.31,19.83-11.22,4.67-3.85,9.27-7.8,14.53-10.85a17.52,17.52,0,0,1,4.38-2.12c3-.74,6.22-.51,8.21,1.91s-.12,4.85-1.52,6.78a68.09,68.09,0,0,1-21.13,19.3c-2.67,1.56-5.28,2.23-8.4,1.06-8.59-3.2-17.18-.92-25.75.41l-3.44.49Z" transform="translate(-494.62 -187.29)"/><path class="f" d="M972.86,544.76c-2-5.07-5.36-7.9-8.91-10.6-2.71-2.06-5.49-4.07-7.34-7-1.77-2.79-2.32-5.78-.68-8.83s4.44-3.83,7.54-3.65c4.59.27,9.28.53,11.18,6,5-4.41,8.91-5.3,11.78-2.81s2.16,6.54-1.28,12.14C981.86,535.31,976.53,538.88,972.86,544.76Z" transform="translate(-494.62 -187.29)"/><path class="f" d="M860.75,568.19a27.77,27.77,0,0,1,2.82-3.19c2.51-2,5.39-2.64,8.23-.91,2.65,1.61,2.83,4.24,2.14,7.06-1.06,4.29-3.46,7.82-6.18,11.15-2.43,3-5.14,5.72-7.16,9.69-2.56-5.18-6.8-8-11.09-10.87a23.7,23.7,0,0,1-6.35-5.47c-2-2.72-2.66-5.63-1.36-8.76s4.1-4.19,7.22-4.18C853.58,562.72,858.43,562.34,860.75,568.19Z" transform="translate(-494.62 -187.29)"/><path class="f" d="M1070.4,519.54c2.17-1.08,3.39-3.24,5.83-3.34s4.8-.06,6.42,2.1,1.16,4.47.16,6.72c-1.67,3.73-4.42,6.63-7.38,9.32s-6.21,5.4-9.55,8.3c-1.39-4.88-4.78-8.31-8.36-11.62-2.38-2.21-4.72-4.51-6-7.57-1.25-2.89-1.28-5.82.59-8.44s4.81-3.42,7.9-2.8C1064.45,513.12,1069.16,513.86,1070.4,519.54Z" transform="translate(-494.62 -187.29)"/><path class="f" d="M878.46,512.23c.72-1.31,1.09-2.12,1.58-2.84,2.06-3,5-4.53,8.42-3.24,3.64,1.37,3.95,4.7,3.37,8.21-1.31,7.82-6.62,13.78-9.59,21.16-2.64-4-6.39-5.94-10.37-7.64-3.25-1.39-6.57-2.68-9.28-5.1s-3.84-5.34-2.92-8.76,3.71-5,6.94-5.41C870.78,508.11,875.29,507,878.46,512.23Z" transform="translate(-494.62 -187.29)"/><path class="f" d="M1027.75,585.78c-1.21-5.32-4.65-8.41-8-11.61-2.44-2.37-5-4.69-6.39-7.88-2.77-6.27,1.41-12.2,8.13-11.2,4.13.61,8.76,1,10.36,6.16.44,1.42,1.14.85,1.9.23a14.07,14.07,0,0,1,2.51-1.8,6.81,6.81,0,0,1,7.54.68c2.31,1.81,2,4.5,1.18,7-1.26,3.59-3.89,6.27-6.56,8.84-1.7,1.64-3.65,3-5.42,4.59S1029.83,583.79,1027.75,585.78Z" transform="translate(-494.62 -187.29)"/><path class="f" d="M937.47,573a28.52,28.52,0,0,1,3.29-4.33,6.46,6.46,0,0,1,7-1.48c2.67,1.1,3.41,3.51,3.33,6.21-.13,4.42-1.81,8.36-3.84,12.18-1.86,3.53-3.72,7.06-5.66,10.72-3-4.15-7.57-6.13-12.23-8-3-1.23-6.07-2.46-8.35-4.94-4.56-5-2.91-11.59,3.61-13.15C929.11,569.06,934,568,937.47,573Z" transform="translate(-494.62 -187.29)"/><path class="f" d="M1121.73,471.11c-8.45,27.14-16.77,53.82-25.08,80.5,3-20.12,6.37-40.13,12.35-59.58,1.69-5.51,3-11.17,5.58-16.38C1115.91,473,1117.58,470.9,1121.73,471.11Z" transform="translate(-494.62 -187.29)"/><path class="f" d="M924.77,414.53c-4.24-1.91-8.67-1.89-13.18-1.55a27.21,27.21,0,0,1-4.73-.44c7.75-4.77,16-5.47,24.56-2.82a12.9,12.9,0,0,1,8,6.53c.37.72,1.59,1.75.53,2.69s-1.85,0-2.77-.47-2-1.3-3.3-1a2.27,2.27,0,0,0-2.22-.93l-.3-.17-.34.09a2.88,2.88,0,0,0-2.86-1l0,.13c-.67-1.08-1.72-1-2.78-.94l-.29-.18Z" transform="translate(-494.62 -187.29)"/><path class="b" d="M925.38,414.6c1.06-.09,2.11-.14,2.78.94C927.06,415.74,925.93,416,925.38,414.6Z" transform="translate(-494.62 -187.29)"/><path class="b" d="M928.13,415.41a2.88,2.88,0,0,1,2.86,1C929.87,416.55,928.64,417,928.13,415.41Z" transform="translate(-494.62 -187.29)"/><path class="b" d="M931.63,416.53a2.27,2.27,0,0,1,2.22.93C933,417.44,932.07,417.55,931.63,416.53Z" transform="translate(-494.62 -187.29)"/><path class="e" d="M909.43,454.87c.08.13.14.27.22.39,1.16,1.6,4.8,1,4.41,2.94-.49,2.43-3.86,1.56-5.74,1.77-9.14,1-18.21-.47-27.25-1.8-1.6-.23-3.2-.41-4.81-.53a13.15,13.15,0,0,1-12.39-13.15c-.07-3.15.43-4.39,4-2.87,11.92,5.11,24.28,9,36.69,12.73a11.52,11.52,0,0,0,4.8.42Z" transform="translate(-494.62 -187.29)"/><path class="f" d="M906.54,303.33a320.64,320.64,0,0,1,120.59-28.65C986.7,283.34,946.76,294,906.54,303.33Z" transform="translate(-494.62 -187.29)"/><path class="f" d="M897.31,322.05c1.94,1.05,3.19.05,4.25-1.62a3.13,3.13,0,0,1,1.36-1.1c2.92-1.25,6.28-3.86,9-1.13s-.33,5.63-1.75,8.28c-2.17,4-4.68,6.58-10.11,5.46-4.23-.88-8.82,0-13.25,0-1.94,0-4.17-.3-4.73-2.47-.62-2.38,1.64-3.28,3.27-4.12A28.67,28.67,0,0,1,897.31,322.05Z" transform="translate(-494.62 -187.29)"/><path class="f" d="M819.52,367.11c-1.62-.08-3.62.43-4.34-1.42-.87-2.19,1.18-3.06,2.6-4a18,18,0,0,1,3.13-1.65c3.94-1.65,8.38-2.06,11.57-5.54a3.92,3.92,0,0,1,5.31-.45c1.58,1.4.53,3.35-.17,5-1.77,4.08-3.47,7.93-9.4,6.94C825.46,365.46,822.41,366.67,819.52,367.11Z" transform="translate(-494.62 -187.29)"/><path class="f" d="M851.22,339.91c-2,.08-3.1.16-3.75-.83-.83-1.28.07-2.3.86-3.1a25.31,25.31,0,0,1,3.41-2.77c3.56-2.55,8.2-3.41,10.91-7.4.88-1.3,3-2.41,4.73-1.31s1.06,3.21.59,4.85c-1.11,3.88-1.9,7.71-7.56,7.8C857,337.21,853.7,339.11,851.22,339.91Z" transform="translate(-494.62 -187.29)"/><path class="f" d="M943.94,310c-2.06,0-4.13,0-6.19,0-1.06,0-2.22-.2-2.58-1.32-.45-1.38.6-2.24,1.64-2.8a18.81,18.81,0,0,1,4.44-1.95c3.23-.78,6.44-1.36,9.1-3.71a3.24,3.24,0,0,1,4.48-.16c1.44,1.44.08,3-.37,4.48C952.82,310.07,948.36,309.83,943.94,310Z" transform="translate(-494.62 -187.29)"/><path class="g" d="M594.93,787.5c-17.54,44.49-31.2,87.15-26.48,101.32C541,884.44,546.34,837,560.63,786.05c-11.38-.89-21.63-1.74-29-1.18.83-13.33,15.26-15.4,34.16-16.07,7.12-22.77,15.48-45.36,23-64.3-42.52-.26-81.28.34-94.12,15.71C509.81,643.93,688.84,704.3,730,647.93c9.14,48.19-42,55.74-99.4,56.62-8.27,17.88-18,39.83-27.35,62.36,18-2.24,35.1-7.87,45.7-23.06C649.85,778.66,623.85,786.79,594.93,787.5Z" transform="translate(-494.62 -187.29)"/><path class="g" d="M706.33,750.18c10.1-15.68,33.36,6.47,28.11,15-5,7.86-41.28,91.55-24.68,89.15,8.14-1.17,28.94-40,41.77-64.66,21-4.22-27.69,73.8-41.66,75.53-40.49,5-29.37-61.05-13.55-96.09-5.27-.61-7.63-2.08-11-4-5.11,18.87-14.94,36.38-22.16,44.15-1.27,1.36-7.28-3.33-4.56-8,8.87-15.34,13.17-24.13,17.69-42.34-19.59-24.81,11.46-29.2,12.1-10.79C688.57,752.78,703.47,752.48,706.33,750.18Z" transform="translate(-494.62 -187.29)"/><path class="g" d="M837.51,801.46c-12,21.71-46.3,55.48-63.06,52.39C715.7,843,754.59,735.25,804.85,741.2c43.36,5.15,16.13,65.73-25.71,57.71-10.22,23.79-15.15,43.85,1.69,40.35,11.44-2.37,32.38-19.21,56-49.22C838.61,791.78,839.72,797.44,837.51,801.46ZM784,788.31c18.79-.76,34.28-37.38,23.72-34.28C803,755.43,792.69,770.75,784,788.31Z" transform="translate(-494.62 -187.29)"/><path class="g" d="M862.81,751.88c-35,20.78,14.48,34,28.92,58,13-2.56,18.25-11.23,23.31-18.72,2.34-3.42,8.09,3.54,5.76,7-5.94,8.75-7.37,15.07-26.3,20.61,4.4,45.76-57.48,79.6-74.57,53-11-27.53,30.44-41.73,44.45-48.48-7-19.18-48.36-19.34-34.92-54,8.9-23,38.5-34,57.87-33,37.93,2,7.93,43-5.45,40.3C897.24,752,878.12,742.8,862.81,751.88Zm-.6,89.27a35.41,35.41,0,0,0,2.78-8.22c-17.41,7-53.85,30.64-29.78,34.49C843.11,868.69,856,854.46,862.21,841.15Z" transform="translate(-494.62 -187.29)"/><path class="g" d="M901.36,843c0-50.22,46.6-153.18,53.43-165.54,3.79-6.86,16.58-9.74,24.77-9.74,11,0,21.83,5.18,21.5,12.9C979.87,713.9,943.72,780,933.79,810.14c12.05-19.62,30.26-39.54,41.64-39.7h.37c9.83,0,20,5.81,20,15.81a18.81,18.81,0,0,1-1.71,7.49c-7.41,17.62-10.59,27.78-10.59,32.39,0,2.08.64,3,1.83,3a2.8,2.8,0,0,0,.55-.06c7.73-1.55,29.09-32,36.06-39.42a4.06,4.06,0,0,1,2.16,4c0,11.84-27,42.4-33.86,43.66a35.62,35.62,0,0,1-6.32.61c-17.53,0-22.62-15.91-22.62-32,0-2.92.43-5.82.43-8.68,0-.87-.35-1.57-.68-1.28-27.18,23.85-38.6,78-47.28,78a3,3,0,0,1-1.39-.37C904.5,868.11,901.36,857.09,901.36,843Z" transform="translate(-494.62 -187.29)"/><path class="g" d="M1138.32,662.72c49.66-.93,37.81,80.42-11.72,94.44,12.92-27.72,41.51-80.07,21.62-78.28-58.58,5.31-153.71,197.32-67.89,201.33,20.39,1,54.84-36.1,83.61-89.81,10.32,24.84-56,106.3-88.83,102.16C949.76,876.73,1029.26,664.78,1138.32,662.72Z" transform="translate(-494.62 -187.29)"/><path class="g" d="M1248,789.67c4.85,20.11-26.39,32.16-37.07,33.72l-.34.05c-10.58,13.1-23.86,21.66-35.8,18.67-28.35-7.07-27.72-45.94-15.07-67.63,18.61-31.9,37.31-32.53,52.91-27.58,23.55,7.5,20.77,37.29,7.73,61.69C1227.19,808.39,1240.71,800.77,1248,789.67Zm-65,35.23c2.16-.14,5-1.83,8.12-4.56A28.05,28.05,0,0,1,1179.73,809C1177.29,818.33,1177.68,825.21,1183,824.9Zm4-34.89c-1.58,10.45,3.34,19.07,12,21.93,13.74-16.91,27.16-44.89,13.6-49.25C1205.4,760.36,1194.59,774.58,1187,790Z" transform="translate(-494.62 -187.29)"/><path class="g" d="M1332.24,789.67c4.86,20.11-26.38,32.16-37.06,33.72l-.34.05c-10.58,13.1-23.87,21.66-35.8,18.67-28.35-7.07-27.72-45.94-15.07-67.63,18.6-31.9,37.3-32.53,52.91-27.58,23.55,7.5,20.77,37.29,7.73,61.69C1311.44,808.39,1325,800.77,1332.24,789.67Zm-65,35.23c2.16-.14,5-1.83,8.12-4.56A28,28,0,0,1,1264,809C1261.54,818.33,1261.93,825.21,1267.27,824.9Zm4-34.89c-1.58,10.45,3.34,19.07,12,21.93,13.75-16.91,27.17-44.89,13.61-49.25C1289.65,760.36,1278.84,774.58,1271.28,790Z" transform="translate(-494.62 -187.29)"/><path class="g" d="M1377.27,668.49c11-10.85,37.49-6.11,41.33,6.09-16.4,27.83-46.64,83.18-67.7,132.89,17.78-31.11,39.93-64.26,53.82-66.7,5.07-.89,13.86,15.19,13.94,19.58-2.88,16.66-21.53,45.35-45.06,62,16,27.92,25.09,13.11,47.74-32.68,2.38.21,5.28,6.31,3.47,11.1-20.45,54.08-49.53,67.93-75.69,27-8.54,18.39-17.21,43.25-20.81,51.17C1285.88,866.12,1361.08,699.82,1377.27,668.49Zm24.21,86.4c-8,9-22.21,27-36,46.17-1.06,1.45-.2.26-1.24,1.73C1389.31,783.64,1398.29,766.69,1401.48,754.89Z" transform="translate(-494.62 -187.29)"/></svg>