<svg xmlns="http://www.w3.org/2000/svg" viewBox="0 0 178.92 50"><defs><style>.a{fill:#fff;}.b{fill:#6d2f3f;}</style></defs><path class="a" d="M15.87,48.27h-.15a4.63,4.63,0,0,1-3.28-2.15c-1.87-2.91-1.64-8.56.68-17.25C12,28.77,10.86,28.7,10,28.7q-.5,0-.93,0H9a1,1,0,0,1-1-1.06c.21-3.41,3.87-3.81,6.68-3.93,1-3.17,2.21-6.56,3.59-10.11h-.63c-6.12,0-12.82.21-14.82,2.6a1,1,0,0,1-.77.36,1.07,1.07,0,0,1-.43-.09A1,1,0,0,1,1,15.39C2.71,6.87,13.83,6.6,24.57,6.33c8.64-.22,17.58-.44,20.86-4.92a1,1,0,0,1,.8-.41l.22,0a1,1,0,0,1,.77.79,8.24,8.24,0,0,1-1.43,7c-3.17,3.89-10.27,4.62-17.59,4.77C27.11,16,25.62,19.31,24,23.08c2.89-.61,4.87-1.79,6.15-3.63A1,1,0,0,1,31,19a1,1,0,0,1,.29,0A1,1,0,0,1,32,20a8.41,8.41,0,0,1-2.07,6.25c-1.74,1.83-4.41,2.77-8.39,3C16.37,42.44,16.51,46,16.82,47a1,1,0,0,1-1,1.32Z"/><path class="a" d="M46.23,2C48,11.06,38.34,12.47,27.55,12.64,26,16,24.17,20.13,22.41,24.36,25.79,23.94,29,22.88,31,20c.17,6.54-4.71,8.07-10.15,8.2-3.3,8.36-5.86,16.38-5,19-5.15-.82-4.15-9.74-1.46-19.31-1.67-.13-3.21-.26-4.46-.26-.36,0-.69,0-1,0,.15-2.5,2.87-2.89,6.42-3,1.33-4.28,2.91-8.53,4.32-12.09h-2.1c-7.14,0-13.39.33-15.59,3C4.85,1.25,38.5,12.59,46.23,2m0-2a2,2,0,0,0-1.61.82C41.64,4.9,33,5.12,24.54,5.33,13.41,5.61,1.89,5.89,0,15.19a2,2,0,0,0,3.5,1.68c1.75-2.1,9.05-2.24,13.23-2.24-1.08,2.83-2,5.56-2.89,8.15C11,23,7.19,23.7,7,27.61a2,2,0,0,0,.59,1.55A2,2,0,0,0,9,29.73H9.1c.24,0,.53,0,.85,0,.56,0,1.2,0,1.9.07C9.74,38.1,9.66,43.63,11.6,46.65a5.59,5.59,0,0,0,4,2.59,1.63,1.63,0,0,0,.31,0,2,2,0,0,0,1.53-.71,2,2,0,0,0,.37-1.92c-.15-.45-.62-3.34,4.47-16.47,3.9-.27,6.59-1.31,8.41-3.23A9.32,9.32,0,0,0,33,20a2,2,0,0,0-1.42-1.86A1.93,1.93,0,0,0,31,18a2,2,0,0,0-1.64.85,7.33,7.33,0,0,1-3.58,2.66c1.15-2.68,2.21-5.06,3.07-6.92,7.33-.19,14.39-1,17.72-5.12A9.21,9.21,0,0,0,48.2,1.63,2,2,0,0,0,46.67.05a2.12,2.12,0,0,0-.44,0Z"/><path class="a" d="M41.66,43.88a4.78,4.78,0,0,1-4.22-2.21c-2.48-3.83-.79-11.51,1.08-16.19l-.06,0A22.23,22.23,0,0,1,34.41,33a1.13,1.13,0,0,1-.85.37h0A2,2,0,0,1,32,32.3a1.94,1.94,0,0,1,0-2,25,25,0,0,0,3.1-7.23c-1.39-1.94-1.26-3.26-.88-4a2.45,2.45,0,0,1,2.24-1.34,3,3,0,0,1,3,2.74,3.12,3.12,0,0,0,.83.09,4.06,4.06,0,0,0,.9-.09,3,3,0,0,1,2.43-1.24,5.42,5.42,0,0,1,4.21,2.75,2.55,2.55,0,0,1,.16,2.62c-1,1.57-5.4,12.27-5.33,15,.73-.7,2.55-3.24,6.8-11.4a1,1,0,0,1,.69-.51,2.17,2.17,0,0,1,.48-.05,1.64,1.64,0,0,1,1.69,1.68c.19,3.12-6.68,14.16-9.68,14.53a7.31,7.31,0,0,1-.91.06Z"/><path class="a" d="M36.42,18.69a2,2,0,0,1,2,2.13c0,.5.92.7,1.8.7a3.12,3.12,0,0,0,1.57-.31,2,2,0,0,1,1.76-1c2,0,4.26,2.64,3.52,3.84C46.14,25.49,39.5,40.8,42.3,40.8h.13c1.53-.22,5.44-7.53,7.85-12.15l.28,0c3.2,0-5.55,13.9-8.11,14.22a5.41,5.41,0,0,1-.79.05C35,42.88,37,31.12,39.9,24.77A4.51,4.51,0,0,1,37.84,24a22.06,22.06,0,0,1-4.16,8.29.17.17,0,0,1-.12,0,1.11,1.11,0,0,1-.74-1.56,25.84,25.84,0,0,0,3.33-7.95c-2.17-2.74-1-4.16.27-4.16m0-2h0a3.44,3.44,0,0,0-3.14,1.9c-.47,1-.68,2.53.7,4.66a24.07,24.07,0,0,1-2.89,6.55,3.09,3.09,0,0,0,2.47,4.56,2.17,2.17,0,0,0,1.58-.68c.09-.09.17-.19.26-.29-.43,3.33-.23,6.6,1.2,8.82a5.74,5.74,0,0,0,5.06,2.67,9.47,9.47,0,0,0,1-.06c1.71-.22,4-2.45,6.72-6.66,1.2-1.84,4-6.39,3.83-8.94a2.65,2.65,0,0,0-2.69-2.61,3.18,3.18,0,0,0-.67.07,2,2,0,0,0-1.38,1c-1.45,2.78-2.6,4.88-3.52,6.47a69,69,0,0,1,3.77-9.07,3.54,3.54,0,0,0-.13-3.65,6.34,6.34,0,0,0-5.08-3.27,3.93,3.93,0,0,0-3,1.31l-.37,0h0a4,4,0,0,0-3.8-2.83Z"/><path class="a" d="M55,41.73a2.92,2.92,0,0,1-.6,0c-4.43-.82-6.79-4.4-6.31-9.59.59-6.43,5.43-13.61,11.44-13.61a6.62,6.62,0,0,1,.88.06c3.89.46,5.14,3,5,5.3a8.69,8.69,0,0,1-8.52,7.67h0a7.26,7.26,0,0,1-.8,0c-1.78,4.33-1.37,5.32-1.27,5.48s.14.08.31.08a2.68,2.68,0,0,0,.45-.05c1.75-.37,5.51-3.26,9.94-8.89a1,1,0,0,1,.72-.38h.07A1,1,0,0,1,67,28a3.07,3.07,0,0,1,.3,3.35C65.06,35.43,58.76,41.73,55,41.73Zm4.68-17.11c-.15.22-.3.45-.46.71C59.4,25.09,59.55,24.85,59.69,24.62Z"/><path class="a" d="M59.54,19.48a6.47,6.47,0,0,1,.76.05c7.64.91,3.61,11-3.41,11a7,7,0,0,1-1.42-.14C53.69,34.5,52.77,38,55.13,38a3.37,3.37,0,0,0,.66-.07c2.15-.45,6.08-3.61,10.52-9.25a2.12,2.12,0,0,1,.13,2.14c-2.15,3.91-8.15,9.88-11.43,9.88a2.77,2.77,0,0,1-.42,0c-10.75-2-4.11-21.22,4.95-21.22m-3.15,8.9c3.39-.14,6.2-6.48,4.67-6.48a1,1,0,0,0-.21,0c-.91.26-2.84,3.14-4.46,6.44m3.15-10.9C53,17.48,47.73,25.13,47.1,32c-.52,5.67,2.21,9.76,7.12,10.66a4.15,4.15,0,0,0,.79.07c4.64,0,11.14-7.21,13.18-10.91a4.05,4.05,0,0,0-.48-4.54,2,2,0,0,0-1.4-.57h-.13a1.93,1.93,0,0,0-.53.11,8,8,0,0,0,.77-2.92c.2-3.41-2.11-5.91-5.88-6.36a8.39,8.39,0,0,0-1-.06Zm-2.65,15a9.3,9.3,0,0,0,4.54-1.19c-2.72,2.88-4.69,4.17-5.69,4.56a15.55,15.55,0,0,1,1-3.37Z"/><path class="a" d="M66.69,46.83a5,5,0,0,1-4.4-2.23.89.89,0,0,1-.08-.17C60,39,66.76,36,70,34.52l.06,0a10.64,10.64,0,0,0-2.36-1.75c-2.37-1.45-5.6-3.44-3.71-8.32,1.73-4.45,7.13-6.85,11.34-6.85h.52c4.07.21,4.45,2.61,4.42,3.63-.06,2.62-3,6-5.24,6a2.14,2.14,0,0,1-.45-.05,1,1,0,0,1-.65-1.51c.83-1.32,1.11-2.5.76-3.14a1.46,1.46,0,0,0-1.29-.6,3.38,3.38,0,0,0-1.7.51c-1.14.67-1.79,1.33-1.82,1.83,0,.89,1.65,2.2,3.15,3.36a20.27,20.27,0,0,1,4,3.7,5.76,5.76,0,0,0,3-2.71l.15-.22a1.36,1.36,0,0,1,1.13-.61,2,2,0,0,1,1.62,1.13,1.86,1.86,0,0,1,0,1.92c-.15.22-.29.43-.42.64a6.82,6.82,0,0,1-4.31,3.39A11.38,11.38,0,0,1,75,42.63c-2.31,2.55-5.59,4.2-8.35,4.2ZM65.54,42.1a2.83,2.83,0,0,0,.62.16h0c.71,0,2.33-1.4,3.52-3.44C67.64,40,65.83,41.42,65.54,42.1Z"/><path class="a" d="M75.33,18.58h.47c6.9.36,1.84,7.6-.77,7.6a1,1,0,0,1-.25,0c2.15-3.43.69-5.27-1.38-5.27a4.34,4.34,0,0,0-2.21.65c-6.58,3.9,2.72,6.39,5.44,10.9,2.45-.48,3.43-2.11,4.38-3.52a.35.35,0,0,1,.3-.17c.49,0,1.13,1,.78,1.49-1.12,1.64-1.38,2.83-4.94,3.87.62,6.5-5.87,11.72-10.46,11.72a4,4,0,0,1-3.56-1.77c-2.07-5.17,5.72-7.84,8.36-9.11-1.31-3.61-9.09-3.64-6.57-10.16,1.61-4.13,6.78-6.21,10.41-6.21M71.6,36.77c-3.27,1.32-10.12,5.75-5.59,6.48h.19c1.49,0,3.75-2.55,4.88-4.95a7,7,0,0,0,.52-1.54m3.73-20.19c-4.54,0-10.39,2.62-12.27,7.49-2.19,5.66,1.75,8.09,4.11,9.54.35.21.7.42,1,.64-3.6,1.7-9.15,5-6.91,10.55a1.54,1.54,0,0,0,.17.34,6,6,0,0,0,5.24,2.69c3.07,0,6.56-1.74,9.09-4.53a12.46,12.46,0,0,0,3.39-7.77A7.72,7.72,0,0,0,83.35,32c.12-.2.25-.41.39-.62a2.81,2.81,0,0,0,.07-2.95,2.92,2.92,0,0,0-2.5-1.66,2.32,2.32,0,0,0-2,1.05L79.2,28a6.1,6.1,0,0,1-1.84,2,16.17,16.17,0,0,0-2-1.9c2.7-.3,5.82-3.88,5.89-6.93.06-2.11-1.32-4.44-5.37-4.65ZM70.9,24.3a4,4,0,0,1,1.31-1,2.38,2.38,0,0,1,1.19-.37.72.72,0,0,1,.42.09c.05.09.1.79-.74,2.12a2,2,0,0,0-.3,1A7.76,7.76,0,0,1,70.9,24.3Z"/><path class="a" d="M80.77,45.47a1.57,1.57,0,0,1-.72-.18l-.11-.06c-1.66-1.15-2.5-3.36-2.5-6.56,0-9.58,8.65-28.87,10.16-31.6,1-1.85,4.07-2.34,5.53-2.34a6,6,0,0,1,4.26,1.52,2.6,2.6,0,0,1,.78,1.94,1.08,1.08,0,0,1-.15.5,197.28,197.28,0,0,0-9.7,17.47,6.8,6.8,0,0,1,4-2.14h0c2.43,0,4.85,1.49,4.85,4a4.55,4.55,0,0,1-.41,1.81,43.67,43.67,0,0,0-1.66,4.45c1.09-1.11,2.63-3.06,3.49-4.16.73-.91,1.35-1.7,1.76-2.14a1,1,0,0,1,.73-.31,1,1,0,0,1,.45.1,1.76,1.76,0,0,1,1,1.65c0,2.76-5.43,8.86-7.18,9.18a7.49,7.49,0,0,1-1.37.14c-3.18,0-5.07-2.33-5.24-6.42a39,39,0,0,0-4.53,8.41C82.8,43.88,82.11,45.47,80.77,45.47Z"/><path class="a" d="M93.13,5.73c2.07,0,4.1,1,4,2.42-4,6.25-10.77,18.68-12.64,24.33,2.27-3.68,5.69-7.43,7.83-7.46h.07c1.84,0,3.76,1.09,3.76,3a3.56,3.56,0,0,1-.32,1.41c-1.4,3.31-2,5.22-2,6.09,0,.39.13.57.35.57l.1,0c1.45-.29,5.47-6,6.78-7.4a.76.76,0,0,1,.4.75c0,2.22-5.07,8-6.36,8.2a6.48,6.48,0,0,1-1.19.12c-3.29,0-4.25-3-4.25-6,0-.55.08-1.1.08-1.63,0-.14,0-.26-.09-.26h0c-5.11,4.49-7.26,14.65-8.89,14.65a.54.54,0,0,1-.26-.07c-1.48-1-2.07-3.09-2.07-5.73,0-9.44,8.75-28.79,10-31.11.71-1.29,3.11-1.83,4.65-1.83m0-2c-1.79,0-5.15.6-6.4,2.86C85.2,9.35,76.44,28.91,76.44,38.67c0,3.55,1,6,2.93,7.38l.22.13a2.48,2.48,0,0,0,1.18.29c2,0,2.82-1.9,4.33-5.37a53.82,53.82,0,0,1,3-6.14c.82,3,2.88,4.75,5.85,4.75a8.46,8.46,0,0,0,1.55-.15c2.39-.44,8-7.09,8-10.17A2.75,2.75,0,0,0,102,26.85a2,2,0,0,0-2.35.42c-.4.43-.94,1.1-1.6,1.94A5.15,5.15,0,0,0,98.19,28c0-3.11-2.93-5-5.76-5h-.11a4.66,4.66,0,0,0-1.45.28c2.64-5.12,5.79-10.62,8-14.07a2,2,0,0,0,.31-1,3.67,3.67,0,0,0-1-2.69,7,7,0,0,0-5-1.82Z"/><path class="a" d="M111.56,49a3.94,3.94,0,0,1-.6,0c-8.66-1.09-13.35-7.05-12.85-16.36C98.81,19.48,109.82,4,123,3.78h.18a6.43,6.43,0,0,1,6.73,6c.72,5.22-2.65,12-8.82,13.73a.86.86,0,0,1-.28,0,1,1,0,0,1-.76-.35,1,1,0,0,1-.14-1.07c.35-.76.76-1.61,1.2-2.51,1.39-2.87,4.63-9.55,4-10.79H125c-7.34.66-18.62,18.83-18.39,29.46.09,4.13,1.89,6.21,5.5,6.38h0c3,0,9-5.61,14.78-16.35a1,1,0,0,1,.88-.53h0a1,1,0,0,1,.88.62c1.1,2.65-1.33,6.92-2.88,9.24C122.15,43.14,115.9,49,111.56,49Z"/><path class="a" d="M123.13,4.78c9.14,0,6.89,15.13-2.37,17.75,2.39-5.12,7.62-14.72,4.25-14.72h-.18c-11,1-28.89,37.08-12.76,37.83h.15c3.84,0,10.22-6.91,15.56-16.88C129.67,33.33,117.87,48,111.56,48a3.59,3.59,0,0,1-.47,0C87.53,45,102.47,5.17,123,4.78h.16m0-2h-.2C109.27,3,97.84,19,97.11,32.55,96.59,42.3,101.72,48.8,110.84,50a5.58,5.58,0,0,0,.72,0c5.29,0,11.93-7.07,15.1-11.82,2-3,4.18-7.25,3-10.17a2,2,0,0,0-1.75-1.23h-.1A2,2,0,0,0,126,27.83c-5.85,10.91-11.59,15.82-13.8,15.82h-.06c-2.06-.09-4.44-.79-4.54-5.4s2.35-11.66,6.24-17.92C117.26,14.86,121.12,11,124,10c-.5,2.22-2.71,6.77-3.86,9.15-.44.9-.86,1.76-1.21,2.51a2,2,0,0,0,1.81,2.85,2,2,0,0,0,.55-.08c6.67-1.89,10.32-9.19,9.54-14.83a7.45,7.45,0,0,0-7.72-6.84Z"/><path class="a" d="M130.74,39.6a4.49,4.49,0,0,1-1.16-.14,6.35,6.35,0,0,1-4.44-3.84,12.42,12.42,0,0,1,1-10.34c2.4-4.11,5.11-6.11,8.3-6.11a9.21,9.21,0,0,1,2.81.48,5.42,5.42,0,0,1,3.51,3.17c.81,2,.63,4.74-.45,7.6a8.19,8.19,0,0,0,2.45-2.33,1,1,0,0,1,.84-.45h.17a1,1,0,0,1,.8.75,4.34,4.34,0,0,1-.68,3.52c-1.57,2.33-5.09,3.64-6.79,4C135.07,38.29,132.83,39.6,130.74,39.6ZM133.09,29a2.64,2.64,0,0,0,1,2.57C136,29,137.29,26,137,24.84a.43.43,0,0,0-.32-.32h0C136.17,24.52,134.66,25.83,133.09,29Z"/><path class="a" d="M134.42,20.17a8.42,8.42,0,0,1,2.51.43c4.43,1.41,3.91,7,1.46,11.59,1.28,0,3.82-1.47,5.19-3.55.91,3.78-5,6-7,6.33h-.06c-1.72,2.13-3.82,3.62-5.81,3.62a3.56,3.56,0,0,1-.92-.11c-5.33-1.33-5.21-8.63-2.83-12.71,2.54-4.36,5.09-5.61,7.43-5.61m0,12.65c2.58-3.18,5.11-8.43,2.56-9.25a.84.84,0,0,0-.31-.05c-1.35,0-3.19,2.49-4.51,5.18a3.54,3.54,0,0,0,2.26,4.12m-3.08,2.44h.07a3.07,3.07,0,0,0,1.52-.86,5.23,5.23,0,0,1-2.14-2.13c-.45,1.71-.39,3,.55,3m3.12-17.09c-3.57,0-6.57,2.16-9.16,6.61a13.43,13.43,0,0,0-1,11.22,7.29,7.29,0,0,0,5.12,4.43,5.42,5.42,0,0,0,1.4.17c2.3,0,4.73-1.34,6.88-3.79,2-.47,5.42-1.87,7.08-4.33a5.3,5.3,0,0,0,.82-4.31,2,2,0,0,0-1.94-1.53,2,2,0,0,0-1.45.61,9.51,9.51,0,0,0-.46-4.8,6.4,6.4,0,0,0-4.13-3.76,10.29,10.29,0,0,0-3.12-.52Zm-.35,11.1a16.66,16.66,0,0,1,1.65-2.66,16.56,16.56,0,0,1-1.62,3.2,2.35,2.35,0,0,1,0-.54Z"/><path class="a" d="M146.57,39.6a4.55,4.55,0,0,1-1.16-.14A6.35,6.35,0,0,1,141,35.62a12.39,12.39,0,0,1,1-10.34c2.4-4.11,5.11-6.11,8.29-6.11a9.27,9.27,0,0,1,2.82.48,5.41,5.41,0,0,1,3.5,3.17c.82,2,.64,4.74-.45,7.6a8.08,8.08,0,0,0,2.45-2.33,1,1,0,0,1,.84-.45h.17a1,1,0,0,1,.8.75,4.3,4.3,0,0,1-.68,3.52c-1.57,2.33-5.09,3.64-6.78,4C150.9,38.29,148.66,39.6,146.57,39.6ZM148.92,29a2.66,2.66,0,0,0,1,2.57c1.9-2.54,3.2-5.56,2.86-6.73a.43.43,0,0,0-.32-.32h0C152,24.52,150.5,25.83,148.92,29Z"/><path class="a" d="M150.25,20.17a8.42,8.42,0,0,1,2.51.43c4.43,1.41,3.91,7,1.46,11.59,1.28,0,3.82-1.47,5.19-3.55.91,3.78-5,6-7,6.33h-.06c-1.72,2.13-3.82,3.62-5.81,3.62a3.62,3.62,0,0,1-.92-.11c-5.32-1.33-5.21-8.63-2.83-12.71,2.54-4.36,5.1-5.61,7.43-5.61m0,12.65c2.59-3.18,5.11-8.43,2.56-9.25a.81.81,0,0,0-.31-.05c-1.35,0-3.19,2.49-4.51,5.18a3.55,3.55,0,0,0,2.26,4.12m-3.08,2.44h.07a3.09,3.09,0,0,0,1.53-.86,5.25,5.25,0,0,1-2.15-2.13c-.45,1.71-.39,3,.55,3m3.12-17.09c-3.57,0-6.56,2.16-9.16,6.61a13.43,13.43,0,0,0-1,11.22,7.29,7.29,0,0,0,5.12,4.43,5.48,5.48,0,0,0,1.4.17c2.31,0,4.73-1.34,6.89-3.79,2-.47,5.41-1.87,7.07-4.33a5.3,5.3,0,0,0,.82-4.31,2,2,0,0,0-1.94-1.53,2,2,0,0,0-1.45.61,9.4,9.4,0,0,0-.46-4.8,6.38,6.38,0,0,0-4.13-3.76,10.29,10.29,0,0,0-3.12-.52Zm-.35,11.1a16.66,16.66,0,0,1,1.65-2.66,16.56,16.56,0,0,1-1.62,3.2,2.35,2.35,0,0,1,0-.54Z"/><path class="a" d="M158.67,46.41a1,1,0,0,1-.29,0A3.94,3.94,0,0,1,155.86,44c-3.67-8.69,11-38.3,11.12-38.6a1.1,1.1,0,0,1,.19-.25,5.6,5.6,0,0,1,4-1.43c2.17,0,4.79.94,5.43,3a1,1,0,0,1-.09.81c-2,3.46-4.72,8.32-7.35,13.51,2.09-2.28,3.19-2.48,3.71-2.57l.25,0c1.78,0,3.52,3.62,3.54,4.67a1.28,1.28,0,0,1,0,.19c-.54,3.12-3.76,8.34-8.13,11.74.82,1.24,1.28,1.39,1.46,1.39,1.21,0,3.57-4.76,5.29-8.24a1,1,0,0,1,.89-.55h.09a1.62,1.62,0,0,1,1.21.84,3,3,0,0,1,.29,2.6c-2.52,6.66-5.71,10.18-9.22,10.18h0c-2,0-3.94-1.16-5.74-3.45-.73,1.72-1.44,3.56-2,5.12-.5,1.28-.89,2.3-1.16,2.9A1,1,0,0,1,158.67,46.41Z"/><path class="a" d="M171.16,4.72c2,0,4,.88,4.48,2.29a237.45,237.45,0,0,0-12.72,25c3.34-5.84,7.5-12.08,10.11-12.53h.08c1,0,2.53,2.88,2.54,3.69-.54,3.13-4.05,8.52-8.47,11.65,1,1.8,1.91,2.65,2.79,2.65,1.69,0,3.39-3.14,6.18-8.79.45,0,1,1.18.66,2.08-2.33,6.16-5.26,9.54-8.29,9.54-2,0-4-1.43-5.94-4.46-1.6,3.45-3.23,8.12-3.91,9.61-8-2.41,6.16-33.66,9.2-39.55a4.68,4.68,0,0,1,3.29-1.14m1.26,17.38c-1.5,1.7-4.17,5.08-6.77,8.68l-.23.32c4.71-3.6,6.4-6.78,7-9M171.16,2.72h0a6.58,6.58,0,0,0-4.69,1.72,2.12,2.12,0,0,0-.38.51c-.15.29-15.06,30.2-11.15,39.44a5,5,0,0,0,3.15,2.94,2.38,2.38,0,0,0,.58.08,2,2,0,0,0,1.82-1.17c.28-.62.68-1.65,1.19-3,.42-1.11.9-2.36,1.41-3.6a7.61,7.61,0,0,0,5.43,2.58c2.76,0,6.77-1.88,10.16-10.83A4,4,0,0,0,178.3,28a2.63,2.63,0,0,0-1.78-1.28,13,13,0,0,0,1.1-3.2,2.43,2.43,0,0,0,0-.38c0-1.37-1.94-5.65-4.54-5.65a2.09,2.09,0,0,0-.43,0,5.57,5.57,0,0,0-.65.15c1.94-3.68,3.82-7,5.33-9.61a2,2,0,0,0,.19-1.61c-.8-2.53-3.87-3.69-6.39-3.69Zm-1.27,32.49c.27-.23.53-.47.79-.71a4.88,4.88,0,0,1-.69.82l-.1-.11Z"/><path class="b" d="M20.85,28.23c-3.3,8.36-5.86,16.38-5,19-5.15-.82-4.15-9.74-1.46-19.31A41.38,41.38,0,0,0,9,27.73c.15-2.5,2.87-2.89,6.42-3,1.33-4.28,2.91-8.53,4.32-12.09-8-.05-15.28.06-17.69,2.95C4.85,1.25,38.5,12.59,46.23,2,48,11.06,38.34,12.47,27.55,12.64,26,16,24.17,20.13,22.41,24.36,25.79,23.94,29,22.88,31,20,31.17,26.57,26.29,28.1,20.85,28.23Z"/><path class="b" d="M41.79,21.21c1.89-2.94,6.27,1.22,5.28,2.82s-7.76,17.21-4.64,16.76c1.53-.22,5.44-7.53,7.85-12.15,3.95-.8-5.2,13.87-7.83,14.19-7.61.94-5.52-11.47-2.55-18.06A4.51,4.51,0,0,1,37.84,24a22.06,22.06,0,0,1-4.16,8.29c-.24.26-1.37-.62-.86-1.51a25.84,25.84,0,0,0,3.33-7.95c-3.69-4.67,2.15-5.49,2.27-2C38.45,21.7,41.25,21.65,41.79,21.21Z"/><path class="b" d="M66.44,30.85c-2.25,4.08-8.7,10.43-11.85,9.85-11-2-3.73-22.29,5.71-21.17,8.15,1,3,12.35-4.83,10.84-1.92,4.47-2.85,8.24.32,7.59,2.15-.45,6.08-3.61,10.52-9.25A2.12,2.12,0,0,1,66.44,30.85Zm-10-2.47c3.53-.14,6.44-7,4.46-6.44C59.94,22.2,58,25.08,56.39,28.38Z"/><path class="b" d="M71.19,21.54c-6.58,3.9,2.72,6.39,5.44,10.9,2.45-.48,3.43-2.11,4.38-3.52.44-.64,1.52.67,1.08,1.32-1.12,1.64-1.38,2.83-4.94,3.87.82,8.6-10.8,15-14,10-2.07-5.17,5.72-7.84,8.36-9.11-1.31-3.61-9.09-3.64-6.57-10.16,1.68-4.32,7.24-6.39,10.88-6.2,7.13.37,1.49,8.09-1,7.57C77.66,21.56,74.07,19.83,71.19,21.54Zm-.11,16.77a7,7,0,0,0,.52-1.54c-3.27,1.32-10.12,5.75-5.59,6.48C67.49,43.49,69.9,40.81,71.08,38.31Z"/><path class="b" d="M78.44,38.67c0-9.44,8.75-28.79,10-31.11.71-1.29,3.11-1.83,4.65-1.83,2.07,0,4.1,1,4,2.42-4,6.25-10.77,18.68-12.64,24.33,2.27-3.68,5.69-7.43,7.83-7.46h.06c1.85,0,3.77,1.09,3.77,3a3.56,3.56,0,0,1-.32,1.41c-1.4,3.31-2,5.22-2,6.09,0,.39.13.57.35.57l.1,0c1.45-.29,5.47-6,6.78-7.4a.76.76,0,0,1,.4.75c0,2.22-5.07,8-6.36,8.2a6.48,6.48,0,0,1-1.19.12c-3.29,0-4.25-3-4.25-6,0-.55.08-1.1.08-1.63,0-.17-.06-.3-.12-.25-5.11,4.49-7.26,14.65-8.89,14.65a.54.54,0,0,1-.26-.07C79,43.38,78.44,41.31,78.44,38.67Z"/><path class="b" d="M123,4.78c9.33-.17,7.1,15.11-2.21,17.75,2.43-5.21,7.81-15,4.07-14.71-11,1-28.89,37.08-12.76,37.83,3.83.18,10.3-6.78,15.71-16.88,1.94,4.67-10.52,20-16.69,19.2C87.53,45,102.47,5.17,123,4.78Z"/><path class="b" d="M143.58,28.64c.91,3.78-5,6-7,6.33h-.06c-2,2.47-4.49,4.07-6.73,3.51-5.33-1.33-5.21-8.63-2.83-12.71,3.5-6,7-6.11,9.94-5.18,4.43,1.41,3.91,7,1.46,11.59C139.67,32.16,142.21,30.72,143.58,28.64Zm-12.21,6.62a3.07,3.07,0,0,0,1.52-.86,5.23,5.23,0,0,1-2.14-2.13C130.29,34,130.36,35.32,131.37,35.26Zm.75-6.56a3.54,3.54,0,0,0,2.26,4.12c2.58-3.18,5.11-8.43,2.56-9.25C135.57,23.13,133.54,25.8,132.12,28.7Z"/><path class="b" d="M159.41,28.64c.91,3.78-5,6-7,6.33h-.06c-2,2.47-4.48,4.07-6.73,3.51-5.32-1.33-5.21-8.63-2.83-12.71,3.5-6,7-6.11,9.94-5.18,4.43,1.41,3.91,7,1.46,11.59C155.5,32.16,158,30.72,159.41,28.64ZM147.2,35.26a3.09,3.09,0,0,0,1.53-.86,5.25,5.25,0,0,1-2.15-2.13C146.12,34,146.2,35.32,147.2,35.26ZM148,28.7a3.55,3.55,0,0,0,2.26,4.12c2.59-3.18,5.11-8.43,2.56-9.25C151.41,23.13,149.37,25.8,148,28.7Z"/><path class="b" d="M167.87,5.86c2.07-2,7-1.14,7.77,1.15a237.45,237.45,0,0,0-12.72,25c3.34-5.84,7.5-12.08,10.11-12.53.95-.17,2.61,2.85,2.62,3.68-.54,3.13-4.05,8.52-8.47,11.65,3,5.25,4.72,2.46,9-6.14.45,0,1,1.18.66,2.08C173,40.89,167.5,43.49,162.58,35.8c-1.6,3.45-3.23,8.12-3.91,9.61C150.7,43,164.83,11.75,167.87,5.86Zm4.55,16.24c-1.5,1.7-4.17,5.08-6.77,8.68l-.23.32C170.13,27.5,171.82,24.32,172.42,22.1Z"/></svg>